<svg xmlns="http://www.w3.org/2000/svg" width="244.236" height="50"><defs><linearGradient id="A" y1=".5" x2="1" y2=".5"><stop offset="0" stop-color="#f7941d"/><stop offset="1" stop-color="#ef4136"/></linearGradient></defs><rect width="50" height="50" rx="4" fill="url(#A)"/><g fill="#fff"><path d="M8.224 26.12c.462-.03.918-.112 1.374-.18l7.268-1.065c.933-.052 1.688-.78 1.772-1.7.14-.6.2-1.215.288-1.825q.614-4.205 1.22-8.412l.9-6.193c.04-.1.02-.233-.052-.326h-.17a17.49 17.49 0 0 0-4.86 1.244 10.4 10.4 0 0 0-5.283 4.8 16.48 16.48 0 0 0-1.61 5.643l-.44 5.1a8.39 8.39 0 0 1-.666 2.883c.083.08.173.048.26.043zm21.09-17.167L31.113 21.3c.077.735.2 1.464.367 2.184a1.83 1.83 0 0 0 1.635 1.376l8.638 1.262c.1.013.194.037.275-.045a6.37 6.37 0 0 1-.5-1.64c-.228-1.338-.276-2.693-.38-4.043a28.62 28.62 0 0 0-.734-5.035c-.46-1.996-1.443-3.835-2.847-5.327A11 11 0 0 0 33.94 7.62c-1.568-.646-3.224-1.056-4.913-1.214-.086.093-.047.2-.032.3q.16 1.127.32 2.247zm2.735 21.78h-.073c-.3-.001-.57.113-.777.32s-.323.484-.323.775v.8c.004.04-.016.08-.05.103s-.08.022-.115 0-.055-.062-.05-.103v-2.8a1.08 1.08 0 0 0-.546-.946 1.09 1.09 0 0 0-1.639.946v2.408c.004.04-.016.08-.05.103s-.08.022-.115 0-.055-.062-.05-.103v-3.615a1.08 1.08 0 0 0-.546-.946 1.09 1.09 0 0 0-1.639.946v3.612c.004.04-.016.08-.05.103s-.08.022-.115 0-.055-.062-.05-.103v-8.427c.012-.398-.194-.77-.536-.974a1.09 1.09 0 0 0-1.648.974v9.235a4.92 4.92 0 0 1-.217 1.558.91.91 0 0 1-.648.6.89.89 0 0 1-.831-.217c-.34-.326-.642-.7-.9-1.084-.748-1.125-2.333-2.76-3.135-2.76-.4.004-.764.225-.953.577a.74.74 0 0 0 .253.842 23.09 23.09 0 0 1 3.226 5.655c.54 1.288 1.386 2.427 2.46 3.32.647.46.74 1.954.75 2.883h7.8v-2.18a.88.88 0 0 1 .272-.646 5.07 5.07 0 0 0 1.33-3.334V31.9a1.15 1.15 0 0 0-1.018-1.164zm-8.377 14.194v.2c.001.383.3.692.693.693h6.4c.382-.001.7-.3.692-.693v-.2z"/><path d="M44.154 27.386c-.067-.2-.244-.32-.445-.323a4.29 4.29 0 0 1-.795-.1c-.235-.068-5.88-.583-12.625-.8.028-.098.032-.2.01-.3-.033-.278-.054-.556-.077-.834l-.272-3.066-.26-2.845-.275-3.09-.492-5.543-.266-3.115a3.67 3.67 0 0 0-.161-1.037c-.023-.2-.05-.407-.066-.61-.004-.184-.115-.35-.285-.42-.242-.113-.5-.193-.763-.238-1.414-.242-2.857-.27-4.28-.078-.404.036-.8.133-1.176.286-.22.067-.367.27-.363.5.02.196-.01.393-.085.575-.045.088-.068.185-.068.284-.056.827-.14 1.652-.212 2.477l-.37 4.144-.358 4.045q-.157 1.753-.32 3.506-.22 2.415-.43 4.83a1.26 1.26 0 0 0-.009.537c-6.748.206-12.4.72-12.648.792-.24.042-.48.072-.722.1-.245-.008-.463.153-.526.4-.22.625-.233 1.302-.042 1.936.117.42.23.485.664.485h16.3V26.78a3.62 3.62 0 0 1 1.854-6.614 3.62 3.62 0 0 1 2.459 6.414h.116a2 2 0 0 1 1.864 1.278c.175-.05.356-.074.538-.074a2.01 2.01 0 0 1 2.008 2.024v.022a1.99 1.99 0 0 1 .4-.04h.132a2.07 2.07 0 0 1 .409.084h11.16a.46.46 0 0 0 .488-.323c.265-.698.26-1.47-.013-2.164z"/><path d="M26.364 25.597v.972a3.17 3.17 0 0 0 1.6-2.769 3.2 3.2 0 0 0-4.8-2.771 3.2 3.2 0 0 0-1.6 2.771 3.17 3.17 0 0 0 1.6 2.769v-.972a2.4 2.4 0 0 1 1.6-4.189 2.4 2.4 0 0 1 1.6 4.189z"/></g><path d="M71.915 18h-4.473l-1.425-5.292H81.76L83.137 18h-5.523v17.956h-5.7zm21.787 17.463l-.77.3c-1.16.45-2.393.676-3.637.672a10.09 10.09 0 0 1-4.735-1.163 9.31 9.31 0 0 1-3.539-3.211 8.65 8.65 0 0 1-.556-8.176 8.9 8.9 0 0 1 2.113-2.851 9.17 9.17 0 0 1 3.08-1.851c1.16-.446 2.394-.674 3.637-.672s2.474.222 3.637.656c1.14.412 2.187 1.047 3.08 1.867a8.95 8.95 0 0 1 2.13 2.851 8.36 8.36 0 0 1 .77 3.572l-.016 8.535-5.193-.048zm-8.176-10.108a3.9 3.9 0 0 0-.606 2.113c-.008 1.14.468 2.23 1.3 3 1.712 1.66 4.432 1.66 6.144 0a3.98 3.98 0 0 0 1.3-3 3.9 3.9 0 0 0-.606-2.113 4.48 4.48 0 0 0-1.623-1.541 4.45 4.45 0 0 0-4.309 0 4.52 4.52 0 0 0-1.62 1.542zm14.204 2.048a8.14 8.14 0 0 1 1.327-4.505 9.14 9.14 0 0 1 3.54-3.212 10.13 10.13 0 0 1 8.372-.507 9.36 9.36 0 0 1 3.1 1.884 9.08 9.08 0 0 1 2.13 2.884 8.71 8.71 0 0 1-.017 7.126c-.5 1.1-1.22 2.066-2.113 2.867a9.29 9.29 0 0 1-3.1 1.885c-2.345.85-4.914.85-7.26 0l-.376-.164-.377-.164v6.915l-5.227-.016zm5.227.115a3.77 3.77 0 0 0 .606 2.1 4.49 4.49 0 0 0 1.622 1.54c.652.378 1.392.576 2.146.573a4.33 4.33 0 0 0 2.162-.573c.662-.368 1.22-.898 1.623-1.54a3.83 3.83 0 0 0 .606-2.1 4.08 4.08 0 0 0-1.31-3.015 4.37 4.37 0 0 0-6.144 0 4.04 4.04 0 0 0-1.313 3.015zm36.62 4.308h-9.3l-2.28 4.133h-5.882l12.8-23.575L149.73 35.95h-5.882zm-2.36-4.293l-2.278-4.128-2.294 4.128zM155.565 18h-4.473l-1.425-5.292h15.746L166.8 18h-5.52v17.956h-5.7zm17.235 5.553a2.04 2.04 0 0 0-1.065-.31h-.294q-2 .082-2 2.785v9.93h-5.243v-9.93q0-7.16 7.242-7.52h.294a8.84 8.84 0 0 1 1.065.1zm14.826 11.9l-.77.3c-1.16.45-2.393.676-3.637.672a10.09 10.09 0 0 1-4.736-1.163 9.31 9.31 0 0 1-3.538-3.211 8.66 8.66 0 0 1-.557-8.176 8.93 8.93 0 0 1 2.113-2.851 9.18 9.18 0 0 1 3.08-1.851 10.09 10.09 0 0 1 3.638-.672 10.39 10.39 0 0 1 3.637.656 9.17 9.17 0 0 1 3.08 1.867 8.97 8.97 0 0 1 2.13 2.85 8.36 8.36 0 0 1 .77 3.572l-.017 8.535-5.193-.048zm-8.175-10.108a3.9 3.9 0 0 0-.607 2.113c-.008 1.14.468 2.23 1.3 3 1.712 1.66 4.432 1.66 6.144 0a4.02 4.02 0 0 0 1.31-3 3.9 3.9 0 0 0-.606-2.113c-.402-.642-.96-1.173-1.622-1.54a4.45 4.45 0 0 0-4.309 0 4.47 4.47 0 0 0-1.62 1.542zm33.42 2.245a8.19 8.19 0 0 1-1.327 4.505 9.13 9.13 0 0 1-3.539 3.211 10.13 10.13 0 0 1-8.37.508 9.35 9.35 0 0 1-3.1-1.885c-.895-.8-1.62-1.8-2.13-2.883a8.72 8.72 0 0 1 .017-7.127c.5-1.1 1.22-2.066 2.114-2.867a9.5 9.5 0 0 1 3.1-1.884 10.62 10.62 0 0 1 7.258 0l.377.163.377.164V12.58l5.227.017zm-5.227-.115a3.81 3.81 0 0 0-.606-2.1c-.4-.643-.96-1.173-1.622-1.54-.652-.378-1.392-.576-2.146-.573a4.33 4.33 0 0 0-2.162.573 4.47 4.47 0 0 0-1.622 1.541c-.403.626-.614 1.356-.607 2.1a4.04 4.04 0 0 0 1.31 3.014 4.37 4.37 0 0 0 6.144 0c.845-.773 1.32-1.868 1.3-3.013zm11.125-11.648a2.82 2.82 0 0 1-.983.982 2.72 2.72 0 0 1-2.735.017 2.8 2.8 0 0 1-1.36-2.392 2.71 2.71 0 0 1 .36-1.376 2.9 2.9 0 0 1 1-1 2.59 2.59 0 0 1 1.36-.36 2.69 2.69 0 0 1 1.376.361 2.77 2.77 0 0 1 .983 1c.48.86.48 1.9 0 2.77zm.344 3.358v16.793h-5.226v-16.78zm18.512 4.715a8.59 8.59 0 0 1 .737 3.54v.147c0 .06-.006.12-.016.18l-.033.28h-2.028v.033h-11.274a4.25 4.25 0 0 0 4.146 3.621 4.03 4.03 0 0 0 2.949-1.245l.033-.033.05-.066.048-.048.033-.05 2.818 4.03c-.742.615-1.57 1.117-2.458 1.5a9.42 9.42 0 0 1-3.473.655 9.2 9.2 0 0 1-4.539-1.163 8.92 8.92 0 0 1-3.391-3.228 8.9 8.9 0 0 1-.541-8.143 8.83 8.83 0 0 1 2.031-2.851 9 9 0 0 1 2.949-1.884 9.56 9.56 0 0 1 3.49-.656 9.42 9.42 0 0 1 3.473.656 9.1 9.1 0 0 1 2.966 1.867 8.55 8.55 0 0 1 2.031 2.868zm-8.47-.655a4.07 4.07 0 0 0-2.064.556 4.9 4.9 0 0 0-1.147 1.016h6.423c-.326-.397-.713-.74-1.147-1.016a4.07 4.07 0 0 0-2.065-.553zm8.674-14.828a1.49 1.49 0 0 1-.01.19.47.47 0 0 1-.03.127.17.17 0 0 1-.048.072.1.1 0 0 1-.063.023h-1.25v4.022c0 .026-.01.05-.025.07a.18.18 0 0 1-.083.05.8.8 0 0 1-.157.031 2.68 2.68 0 0 1-.489 0c-.053-.005-.106-.015-.157-.03a.18.18 0 0 1-.083-.05c-.016-.02-.025-.044-.025-.07V8.83h-1.253a.1.1 0 0 1-.066-.023c-.02-.02-.037-.045-.046-.072-.015-.04-.025-.084-.03-.127a1.58 1.58 0 0 1-.01-.191 1.66 1.66 0 0 1 .01-.2.49.49 0 0 1 .029-.13c.01-.027.025-.05.046-.07s.042-.022.066-.02h3.517a.1.1 0 0 1 .063.021c.022.018.04.042.048.07a.52.52 0 0 1 .029.13c.01.066.013.133.014.2zm6.408 4.433a.12.12 0 0 1-.021.07c-.02.024-.047.042-.077.05a.68.68 0 0 1-.148.03c-.078.008-.157.012-.236.01h-.23a.68.68 0 0 1-.146-.031.16.16 0 0 1-.077-.05c-.015-.02-.024-.045-.023-.07V8.8h-.007l-1.446 4.057c-.01.032-.026.06-.05.083a.24.24 0 0 1-.094.052.62.62 0 0 1-.152.025q-.094.006-.224.006a2.18 2.18 0 0 1-.224-.009c-.052-.004-.103-.015-.153-.03a.28.28 0 0 1-.094-.052c-.023-.02-.04-.045-.047-.074l-1.4-4.057h-.007v4.06a.13.13 0 0 1-.02.07c-.02.025-.048.042-.08.05a.68.68 0 0 1-.148.03 1.81 1.81 0 0 1-.233.01l-.232-.01c-.05-.005-.1-.016-.148-.03-.03-.01-.057-.026-.077-.05-.014-.02-.02-.045-.02-.07V8.405a.41.41 0 0 1 .1-.3c.075-.07.176-.106.278-.1h.664a1.33 1.33 0 0 1 .3.03c.08.018.154.052.22.1a.54.54 0 0 1 .154.177 1.33 1.33 0 0 1 .108.272l1.08 2.973h.015L242.46 8.6c.028-.095.065-.186.1-.274a.6.6 0 0 1 .14-.18.46.46 0 0 1 .187-.1.96.96 0 0 1 .251-.029h.682a.53.53 0 0 1 .179.027c.047.016.1.043.124.08a.34.34 0 0 1 .073.127.56.56 0 0 1 .025.172z" fill="#393939"/></svg>