<svg xmlns="http://www.w3.org/2000/svg" xmlns:xlink="http://www.w3.org/1999/xlink" width="50" height="50" viewBox="0 0 50 50"><defs><linearGradient id="a" y1="0.5" x2="1" y2="0.5" gradientUnits="objectBoundingBox"><stop offset="0" stop-color="#f7941d"/><stop offset="1" stop-color="#ef4136"/></linearGradient></defs><g transform="translate(9230 10581)"><g transform="translate(-9409.985 -10608.001)"><rect width="50" height="50" rx="4" transform="translate(179.985 27.001)" fill="url(#a)"/><g transform="translate(185.626 31.874)"><path d="M159.377,86.089c.462-.03.918-.112,1.374-.181,2.421-.365,4.846-.7,7.268-1.065a1.884,1.884,0,0,0,1.772-1.711c.139-.6.2-1.215.288-1.825q.614-4.205,1.219-8.412c.3-2.065.593-4.13.9-6.193a.348.348,0,0,0-.052-.326c-.057,0-.114,0-.17,0a17.49,17.49,0,0,0-4.86,1.244,10.4,10.4,0,0,0-5.283,4.8,16.533,16.533,0,0,0-1.611,5.643c-.219,1.695-.271,3.4-.439,5.1a8.392,8.392,0,0,1-.666,2.883C159.2,86.125,159.29,86.094,159.377,86.089Z" transform="translate(-156.794 -64.842)" fill="#fff"/><path d="M209.876,68.92c.325,2.259.66,4.517.985,6.775.268,1.861.534,3.723.813,5.582a17.925,17.925,0,0,0,.367,2.184,1.834,1.834,0,0,0,1.635,1.376c1,.156,2.005.293,3.008.439,1.877.273,3.752.559,5.63.823.1.013.194.037.275-.045a6.369,6.369,0,0,1-.5-1.64c-.228-1.338-.276-2.693-.38-4.043a28.618,28.618,0,0,0-.734-5.035,11.567,11.567,0,0,0-2.847-5.327,10.876,10.876,0,0,0-3.628-2.422,17.074,17.074,0,0,0-4.913-1.214c-.086.093-.047.2-.032.3Q209.715,67.8,209.876,68.92Z" transform="translate(-186.202 -64.84)" fill="#fff"/><g transform="translate(11.295 17.833)"><path d="M195.759,113.522l-.073,0a1.095,1.095,0,0,0-1.1,1.094v.8a.109.109,0,1,1-.217,0v-2.809a1.092,1.092,0,1,0-2.185,0v2.408a.109.109,0,1,1-.217,0V111.4a1.092,1.092,0,1,0-2.185,0v3.612a.109.109,0,1,1-.217,0v-8.427a1.093,1.093,0,1,0-2.185,0v9.235a4.921,4.921,0,0,1-.217,1.558.911.911,0,0,1-.648.6.888.888,0,0,1-.831-.217,6.223,6.223,0,0,1-.9-1.084c-.748-1.125-2.333-2.761-3.135-2.761a1.094,1.094,0,0,0-.953.577.742.742,0,0,0,.253.842,23.073,23.073,0,0,1,3.226,5.655,8.684,8.684,0,0,0,2.461,3.319c.647.46.739,1.954.749,2.883h7.79v-2.18a.879.879,0,0,1,.272-.646,5.071,5.071,0,0,0,1.33-3.334v-6.346A1.147,1.147,0,0,0,195.759,113.522Z" transform="translate(-180.646 -105.494)" fill="#fff"/><path d="M196.814,158.827c0,.018,0,.039,0,.055v.146a.694.694,0,0,0,.693.693h6.4a.694.694,0,0,0,.692-.693v-.2Z" transform="translate(-190.077 -136.605)" fill="#fff"/></g><path d="M192.05,85.207a.483.483,0,0,0-.445-.323,4.29,4.29,0,0,1-.795-.1c-.235-.068-5.881-.583-12.625-.79a.613.613,0,0,0,.011-.3c-.033-.278-.054-.556-.077-.834-.084-1.023-.182-2.044-.272-3.066-.083-.949-.182-1.9-.26-2.845-.085-1.031-.18-2.061-.275-3.091-.076-.825-.136-1.652-.218-2.477-.1-1.021-.179-2.044-.274-3.066-.1-1.037-.182-2.076-.266-3.115a3.67,3.67,0,0,0-.161-1.037c-.023-.2-.051-.407-.066-.611a.466.466,0,0,0-.285-.42,2.966,2.966,0,0,0-.763-.238A14.175,14.175,0,0,0,171,62.816a4.067,4.067,0,0,0-1.176.286.514.514,0,0,0-.363.5,1.207,1.207,0,0,1-.085.575.615.615,0,0,0-.068.284c-.056.827-.141,1.652-.212,2.477-.119,1.382-.253,2.762-.37,4.144-.115,1.349-.237,2.7-.358,4.045q-.157,1.753-.319,3.506-.221,2.415-.43,4.83a1.26,1.26,0,0,0-.009.537c-6.748.206-12.4.721-12.648.792a7.083,7.083,0,0,1-.722.09.526.526,0,0,0-.526.39,3.125,3.125,0,0,0-.042,1.936c.117.421.23.485.664.485h16.3V84.6a3.618,3.618,0,1,1,4.313-.2c.038,0,.077,0,.116,0a2,2,0,0,1,1.864,1.278,1.984,1.984,0,0,1,.538-.074,2.009,2.009,0,0,1,2.008,2.024v.022a1.992,1.992,0,0,1,.4-.04c.044,0,.088,0,.132,0a2.068,2.068,0,0,1,.409.084H188.9c.892,0,1.784-.006,2.675,0a.46.46,0,0,0,.488-.323A3.005,3.005,0,0,0,192.05,85.207Z" transform="translate(-153.537 -62.694)" fill="#fff"/><path d="M196.547,105.423v.972a3.172,3.172,0,0,0,1.6-2.769,3.2,3.2,0,1,0-6.4,0,3.172,3.172,0,0,0,1.6,2.769v-.972a2.4,2.4,0,1,1,3.2,0Z" transform="translate(-175.824 -84.699)" fill="#fff"/></g></g></g></svg>