<svg width="142" height="42" viewBox="0 0 142 42" fill="none" xmlns="http://www.w3.org/2000/svg">
<path d="M136.28 42H5.24153C2.35872 42 0 39.6375 0 36.75V5.25002C0 2.3625 2.35867 0 5.24153 0H136.28C139.162 0 141.521 2.3625 141.521 5.25002V36.75C141.521 39.6375 139.162 42 136.28 42" fill="black"/>
<path d="M136.28 0H5.24153C2.35872 0 0 2.3625 0 5.25002V36.75C0 39.6375 2.35867 42 5.24153 42H136.28C139.162 42 141.521 39.6375 141.521 36.75V5.25002C141.521 2.3625 139.162 0 136.28 0H136.28ZM136.28 0.839974C138.707 0.839974 140.682 2.81863 140.682 5.25002V36.75C140.682 39.1818 138.707 41.1605 136.28 41.1605H5.24153C2.8141 41.1605 0.838652 39.1818 0.838652 36.75V5.25002C0.838652 2.81863 2.81405 0.840021 5.24153 0.840021H136.28" fill="#A6A6A6"/>
<path d="M49.7091 10.7557C49.7091 11.6354 49.449 12.3359 48.9281 12.8585C48.3364 13.4799 47.5653 13.7908 46.6173 13.7908C45.7095 13.7908 44.9376 13.4758 44.3028 12.845C43.667 12.2146 43.3496 11.4328 43.3496 10.5001C43.3496 9.567 43.667 8.78573 44.3028 8.1548C44.9376 7.52445 45.7095 7.20898 46.6173 7.20898C47.0678 7.20898 47.499 7.29723 47.9085 7.4732C48.318 7.64959 48.6464 7.88375 48.8921 8.17698L48.3392 8.73108C47.9228 8.23276 47.3495 7.98379 46.6173 7.98379C45.9552 7.98379 45.3827 8.21681 44.8995 8.68314C44.4163 9.14994 44.1747 9.75528 44.1747 10.5001C44.1747 11.245 44.4163 11.8503 44.8995 12.3172C45.3827 12.7835 45.9552 13.0165 46.6173 13.0165C47.3197 13.0165 47.9052 12.7822 48.3741 12.3131C48.6784 12.0074 48.8544 11.5826 48.9015 11.037H46.6172V10.2803H49.6652C49.6947 10.4448 49.709 10.6027 49.709 10.7557" fill="white"/>
<path d="M49.7084 10.7552H49.6035C49.6027 11.6149 49.352 12.2826 48.8532 12.7838L48.8521 12.7847L48.8517 12.7855C48.2788 13.3855 47.5424 13.6841 46.6165 13.6854C45.733 13.6841 44.9934 13.3822 44.3758 12.7703C43.7596 12.1571 43.4549 11.4085 43.4537 10.4997C43.4549 9.59036 43.7596 8.84222 44.3758 8.22946C44.9934 7.61708 45.733 7.31478 46.6165 7.31351C47.0535 7.31351 47.4696 7.39892 47.8664 7.56909C48.2635 7.74058 48.5773 7.96529 48.8111 8.24428L48.8914 8.17651L48.8173 8.10228L48.2644 8.65676L48.3385 8.73061L48.4192 8.66341C47.9834 8.14041 47.3718 7.87676 46.6166 7.87832C45.9299 7.87747 45.3259 8.12324 44.8263 8.60726C44.3218 9.09284 44.0684 9.73226 44.0692 10.4997C44.0684 11.2671 44.3218 11.9065 44.8263 12.3921C45.3259 12.8761 45.9299 13.1218 46.6165 13.121C47.3422 13.1223 47.9606 12.8757 48.4474 12.3868C48.7726 12.0603 48.9569 11.6079 49.0052 11.0455L49.015 10.9315H46.7214V10.3848H49.6645V10.2798L49.5613 10.2982C49.59 10.4575 49.6035 10.6088 49.6035 10.7552H49.8132C49.8132 10.5956 49.7984 10.4316 49.7677 10.261L49.7521 10.1748H46.5118V11.1415H48.9008V11.0365L48.7964 11.0275C48.7501 11.5558 48.5822 11.9537 48.2992 12.2384C47.8488 12.6879 47.296 12.9097 46.6166 12.911C45.9791 12.9101 45.4381 12.6903 44.9717 12.2412C44.5098 11.7937 44.28 11.2224 44.2789 10.4997C44.28 9.77695 44.5098 9.20562 44.9717 8.75812C45.4381 8.30902 45.979 8.08916 46.6166 8.08832C47.3255 8.09001 47.8607 8.32459 48.2584 8.79833L48.3321 8.8861L48.9655 8.25079L49.0335 8.18274L48.9716 8.10922C48.7141 7.80169 48.3709 7.55757 47.9491 7.37637C47.5265 7.19459 47.0806 7.10352 46.6166 7.10352C45.6846 7.10271 44.8804 7.43082 44.228 8.08015C43.5733 8.72821 43.2432 9.54279 43.2441 10.4997C43.2432 11.4561 43.5733 12.2711 44.2285 12.9196C44.8804 13.5685 45.6846 13.8962 46.6166 13.8954C47.5871 13.8962 48.3922 13.5733 49.0032 12.9306L48.9274 12.858L49.0015 12.9323C49.5445 12.3888 49.8139 11.6547 49.8132 10.7552H49.7084H49.7084ZM54.5403 8.12361H51.6759V10.1211H54.2591V10.8782H51.6759V12.8757H54.5403V13.6496H50.8684V7.34966H54.5403V8.12361" fill="white"/>
<path d="M54.5414 8.12407V8.01907H51.5722V10.2266H54.1553V10.7733L51.5721 10.7736V12.9811H54.4365V13.5451H50.9743V7.45511H54.4365V8.12407H54.5414V8.01907V8.12407H54.6462V7.24512H50.7646V13.7551H54.6462V12.7712H51.7818V10.9836H54.3649V10.0166H51.7818V8.22907H54.6462V8.12407H54.5414V8.12407ZM57.9496 13.6502H57.1409V8.12402H55.3841V7.35007H59.7064V8.12402H57.9496V13.6501" fill="white"/>
<path d="M57.9496 13.6502V13.5451H57.2457V8.01907H55.489V7.45516H59.6015V8.01907H57.8448V13.6501H57.9496V13.5451V13.6501H58.0545V8.22907H59.8112V7.24512H55.2793V8.22902H57.036V13.7551H58.0545V13.6501H57.9496V13.6502ZM62.8337 13.6502V7.35007H63.6416V13.6501H62.8337" fill="white"/>
<path d="M62.8333 13.6502H62.9382V7.45511H63.5364V13.5451H62.8333V13.6501H62.9382H62.8333V13.7551H63.7461V7.24512H62.7285V13.7551H62.8333V13.6501V13.6502ZM67.2263 13.6502H66.4176V8.12402H64.6609V7.35007H68.9831V8.12402H67.2263V13.6501" fill="white"/>
<path d="M67.2269 13.6502V13.5451H66.5229V8.01909H64.7663V7.45517H68.8788V8.01909H67.1221V13.6501H67.2269V13.5451V13.6501H67.3317V8.22908H69.0884V7.24513H64.5566V8.22903H66.3133V13.7551H67.3317V13.6501H67.2269V13.6502ZM73.1507 12.3086C73.6162 12.7806 74.1859 13.0164 74.8595 13.0164C75.5331 13.0164 76.1031 12.7806 76.5679 12.3086C77.0339 11.8365 77.2673 11.233 77.2673 10.5001C77.2673 9.76727 77.0339 9.16381 76.5679 8.69173C76.1031 8.21964 75.5331 7.98379 74.8595 7.98379C74.1859 7.98379 73.6162 8.21964 73.1507 8.69173C72.6858 9.16381 72.4525 9.76722 72.4525 10.5001C72.4525 11.233 72.6858 11.8365 73.1507 12.3086ZM77.1657 12.836C76.5474 13.4729 75.7784 13.7908 74.8595 13.7908C73.9397 13.7908 73.171 13.4729 72.554 12.836C71.9352 12.1997 71.6273 11.421 71.6273 10.5001C71.6273 9.57927 71.9352 8.80036 72.554 8.16429C73.1711 7.52723 73.9397 7.20898 74.8595 7.20898C75.7735 7.20898 76.5404 7.52893 77.1617 8.16839C77.782 8.80781 78.0924 9.58502 78.0924 10.5001C78.0924 11.421 77.7828 12.1997 77.1657 12.836Z" fill="white"/>
<path d="M73.1506 12.3081L73.076 12.3819C73.5589 12.8729 74.1613 13.1223 74.8594 13.121C75.5572 13.1223 76.1603 12.8729 76.6424 12.3819C77.1284 11.8905 77.3728 11.2547 77.3721 10.4997C77.3728 9.74462 77.1284 9.10884 76.6424 8.61741C76.1603 8.12645 75.5572 7.8771 74.8594 7.87832C74.1613 7.8771 73.5589 8.12645 73.076 8.61741C72.5912 9.10884 72.3463 9.74462 72.3476 10.4997C72.3463 11.2547 72.5912 11.8905 73.076 12.3819L73.1506 12.3081L73.2252 12.2342C72.7804 11.781 72.5581 11.2108 72.5572 10.4997C72.5581 9.78851 72.7804 9.21836 73.2251 8.76506C73.6739 8.3119 74.2099 8.08959 74.8594 8.08836C75.5084 8.08959 76.0457 8.3119 76.4933 8.76506C76.9388 9.21836 77.1612 9.78851 77.162 10.4997C77.1612 11.2108 76.9388 11.781 76.4933 12.2342C76.0457 12.6875 75.5085 12.9097 74.8594 12.9109C74.2099 12.9097 73.6739 12.6875 73.2251 12.2342L73.1506 12.3081ZM77.1657 12.8355L77.0907 12.7625C76.4896 13.3794 75.7546 13.6841 74.8594 13.6854C73.9639 13.6841 73.2288 13.3794 72.6288 12.7625L72.626 12.7592L72.6288 12.7625C72.029 12.1435 71.733 11.3971 71.7321 10.4997C71.733 9.6022 72.029 8.85576 72.6288 8.23682C73.2288 7.61991 73.9638 7.31479 74.8594 7.31356C75.7488 7.31479 76.4822 7.62119 77.0866 8.2413C77.6886 8.86312 77.9863 9.60839 77.9876 10.4997C77.9863 11.3971 77.6894 12.1435 77.0907 12.7625L77.1657 12.8355L77.2411 12.9084C77.8765 12.2547 78.1979 11.4438 78.1972 10.4997C78.198 9.56087 77.8753 8.75161 77.2369 8.09497C76.5981 7.43573 75.798 7.10239 74.8594 7.10352C73.916 7.10239 73.1134 7.43418 72.4786 8.09087V8.09039C71.8419 8.74458 71.5216 9.55549 71.5225 10.4997C71.5216 11.4438 71.8419 12.2547 72.4786 12.9089L72.4814 12.9118L72.4786 12.9084C73.1134 13.5651 73.916 13.8962 74.8594 13.8954C75.8025 13.8962 76.6051 13.5651 77.2411 12.9084L77.1657 12.8355V12.8355ZM79.2266 13.6497V7.34961H80.2103L83.2671 12.2506H83.302L83.2671 11.0365V7.34961H84.0759V13.6496H83.2323L80.0342 8.51113H79.9994L80.0342 9.72565V13.6496H79.2267" fill="white"/>
<path d="M79.2261 13.6502H79.331V7.45511H80.1516L83.2085 12.3561H83.4091L83.3715 11.0354V7.45516H83.9706V13.5451H83.29L80.0919 8.40664H79.8912L79.9288 9.72785V13.5451H79.2262V13.6501H79.331H79.2262V13.7551H80.1385V9.7245L80.1037 8.50881L79.9989 8.51164V8.61663H80.0337V8.51164L79.9448 8.56746L83.1737 13.7551H84.1802V7.24512H83.1618V11.0382L83.1966 12.2539L83.3015 12.2511V12.1461H83.2667V12.2511L83.3556 12.1953L80.2679 7.24512H79.1214V13.7551H79.2262V13.6501L79.2261 13.6502ZM112.102 31.5001H114.058V18.3739H112.102L112.102 31.5001ZM129.721 23.1023L127.478 28.7931H127.411L125.084 23.1022H122.977L126.467 31.0563L124.477 35.4807H126.518L131.896 23.1022L129.721 23.1023ZM118.627 30.0092C117.986 30.0092 117.093 29.6885 117.093 28.8944C117.093 27.8813 118.206 27.4929 119.166 27.4929C120.027 27.4929 120.43 27.6787 120.954 27.9323C120.802 29.1479 119.756 30.0092 118.627 30.0092V30.0092ZM118.863 22.8151C117.447 22.8151 115.98 23.4401 115.373 24.8249L117.109 25.5508C117.48 24.8249 118.171 24.5882 118.897 24.5882C119.908 24.5882 120.937 25.1964 120.954 26.2772V26.4122C120.599 26.2095 119.841 25.9056 118.914 25.9056C117.042 25.9056 115.136 26.9355 115.136 28.8608C115.136 30.6171 116.671 31.7487 118.39 31.7487C119.706 31.7487 120.43 31.1576 120.886 30.4653H120.954V31.4784H122.842V26.4457C122.842 24.1157 121.106 22.8151 118.863 22.8151V22.8151ZM106.774 24.7001H103.992V20.2008H106.774C108.237 20.2008 109.067 21.4135 109.067 22.4504C109.067 23.4676 108.237 24.7001 106.774 24.7001ZM106.724 18.3739H102.037V31.5001H103.992V26.527H106.724C108.892 26.527 111.023 24.9548 111.023 22.4504C111.023 19.946 108.892 18.3739 106.724 18.3739V18.3739ZM81.1651 30.0117C79.8137 30.0117 78.6823 28.8784 78.6823 27.3219C78.6823 25.749 79.8137 24.5985 81.1651 24.5985C82.4993 24.5985 83.5463 25.7489 83.5463 27.3219C83.5463 28.8784 82.4993 30.0117 81.1652 30.0117H81.1651ZM83.4112 23.8372H83.3436C82.9047 23.313 82.0598 22.8393 80.996 22.8393C78.7667 22.8393 76.7234 24.8015 76.7234 27.3219C76.7234 29.8255 78.7667 31.7708 80.996 31.7708C82.0598 31.7708 82.9047 31.2971 83.3436 30.7561H83.4112V31.3988C83.4112 33.1076 82.4993 34.021 81.03 34.021C79.8309 34.021 79.0878 33.158 78.7835 32.4307L77.078 33.1412C77.5678 34.3252 78.8683 35.7801 81.03 35.7801C83.3268 35.7801 85.269 34.4266 85.269 31.1281V23.11H83.4112V23.8372ZM86.62 31.5001H88.5791V18.3734H86.62V31.5001ZM91.4671 27.1697C91.4164 25.4441 92.8013 24.5648 93.7976 24.5648C94.575 24.5648 95.2334 24.9536 95.4525 25.5123L91.4671 27.1697ZM97.547 25.6812C97.1759 24.6829 96.0437 22.8393 93.73 22.8393C91.4332 22.8393 89.5249 24.6493 89.5249 27.3051C89.5249 29.8087 91.4164 31.7708 93.9495 31.7708C95.9934 31.7708 97.1759 30.519 97.6654 29.7918L96.1454 28.7766C95.639 29.5211 94.9462 30.0117 93.9495 30.0117C92.9532 30.0117 92.244 29.5548 91.7878 28.6585L97.7493 26.1886L97.547 25.6812ZM50.0502 24.2096V26.1041H54.5762C54.4411 27.1697 54.0864 27.9478 53.5459 28.4891C52.8875 29.1491 51.8573 29.8763 50.0501 29.8763C47.2634 29.8763 45.085 27.6266 45.085 24.8354C45.085 22.0444 47.2635 19.7943 50.0502 19.7943C51.5534 19.7943 52.6508 20.3865 53.4616 21.1477L54.7957 19.8115C53.6643 18.7286 52.1611 17.8998 50.0502 17.8998C46.2332 17.8998 43.0244 21.0124 43.0244 24.8354C43.0244 28.6585 46.2332 31.7708 50.0502 31.7708C52.1107 31.7708 53.6643 31.0945 54.8801 29.8255C56.1299 28.5737 56.5185 26.8145 56.5185 25.3937C56.5185 24.9536 56.4849 24.548 56.4169 24.2096H50.0502ZM61.6642 30.0117C60.3129 30.0117 59.1475 28.8952 59.1475 27.3051C59.1475 25.698 60.3129 24.5985 61.6642 24.5985C63.0151 24.5985 64.1805 25.698 64.1805 27.3051C64.1805 28.8952 63.0151 30.0117 61.6642 30.0117ZM61.6642 22.8393C59.1982 22.8393 57.1884 24.7169 57.1884 27.3051C57.1884 29.8763 59.1982 31.7708 61.6642 31.7708C64.1297 31.7708 66.1395 29.8763 66.1395 27.3051C66.1395 24.7169 64.1297 22.8393 61.6642 22.8393ZM71.4273 30.0117C70.0765 30.0117 68.9109 28.8952 68.9109 27.3051C68.9109 25.698 70.0765 24.5985 71.4273 24.5985C72.7783 24.5985 73.9437 25.698 73.9437 27.3051C73.9437 28.8952 72.7783 30.0117 71.4273 30.0117H71.4273ZM71.4273 22.8393C68.9614 22.8393 66.952 24.7169 66.952 27.3051C66.952 29.8763 68.9614 31.7708 71.4273 31.7708C73.8929 31.7708 75.9028 29.8763 75.9028 27.3051C75.9028 24.7169 73.8929 22.8393 71.4273 22.8393H71.4273Z" fill="white"/>
<path d="M11.0159 7.99222C10.6641 8.31013 10.4541 8.8404 10.4541 9.54428V9.38516V32.6123V32.4593C10.4541 33.1094 10.6342 33.6114 10.9393 33.9347L11.0171 34.0093V34.0096C11.264 34.2328 11.5806 34.3513 11.9435 34.3509C12.298 34.3509 12.6969 34.2377 13.1179 33.9986L28.3342 25.339L33.5609 22.3641C34.2247 21.9864 34.5974 21.4991 34.6597 21.0028V21.0008C34.5974 20.5033 34.2247 20.0164 33.561 19.6386L28.3338 16.6641L13.1179 8.00449C12.696 7.765 12.2969 7.65137 11.9414 7.65137C11.579 7.65137 11.2628 7.76948 11.016 7.99222H11.0159Z" fill="#00C1FF"/>
<path d="M11.0172 34.0088L10.9393 33.9341C10.6342 33.6109 10.4541 33.1088 10.4541 32.4588V32.6118V9.39039V9.54375C10.4541 8.83987 10.6641 8.30961 11.0159 7.99169L24.0042 21.0007L11.0172 34.0088Z" fill="url(#paint0_linear)"/>
<path d="M28.3349 25.3389L24.0049 21.0011L28.3345 16.6641L33.5617 19.6385C34.2254 20.0163 34.5981 20.5032 34.6604 21.0007V21.0027C34.5981 21.499 34.2254 21.9863 33.5617 22.364L28.3349 25.3388" fill="url(#paint1_linear)"/>
<path d="M11.9438 34.3506C11.581 34.3509 11.2644 34.2324 11.0176 34.0093V34.0089L24.0046 21.0008L28.3346 25.3386L13.1182 33.9983C12.6972 34.2374 12.2983 34.3506 11.9438 34.3506Z" fill="url(#paint2_linear)"/>
<path d="M24.004 21.001L11.0156 7.992C11.2625 7.76927 11.5787 7.65115 11.9411 7.65115C12.2965 7.65115 12.6958 7.76474 13.1176 8.00427L28.3336 16.6639L24.0039 21.001" fill="url(#paint3_linear)"/>
<path d="M11.944 34.5039C11.5812 34.5039 11.2642 34.3854 11.0173 34.1623L11.0168 34.1626C11.0158 34.1616 11.0147 34.1607 11.0136 34.1598L10.9461 34.0937C10.9439 34.0917 10.942 34.0893 10.9395 34.0868L11.0173 34.0088C11.2642 34.232 11.5808 34.3505 11.9436 34.3501C12.2981 34.3501 12.697 34.2369 13.118 33.9978L28.3344 25.3381L28.4319 25.4358L28.3331 25.492L13.118 34.1512C12.7343 34.369 12.3694 34.4826 12.0398 34.5015C12.0079 34.5031 11.9759 34.5038 11.944 34.5039" fill="url(#paint4_linear)"/>
<path d="M10.9393 34.0869C10.6342 33.7637 10.4541 33.262 10.4541 32.6116V32.4586C10.4541 33.1086 10.6342 33.6106 10.9393 33.9339L11.0171 34.0086L10.9393 34.0869" fill="url(#paint5_linear)"/>
<path d="M28.4325 25.4365L28.335 25.3388L33.5617 22.364C34.2255 21.9863 34.5981 21.499 34.6604 21.0026C34.6604 21.1848 34.6198 21.3669 34.5393 21.5441C34.3766 21.9014 34.0507 22.2389 33.5617 22.5174L28.4325 25.4365" fill="url(#paint6_linear)"/>
<path d="M34.6599 21C34.5976 20.5025 34.2249 20.0156 33.5612 19.6378L28.334 16.6634L28.4315 16.5657H28.4319L33.5612 19.4848C34.293 19.9016 34.6595 20.4507 34.6599 21" fill="url(#paint7_linear)"/>
<path d="M10.4541 9.54395V9.3835C10.4541 9.32565 10.4557 9.26907 10.4586 9.21414V9.21164C10.4586 9.21088 10.4586 9.21008 10.4589 9.20923V9.20305C10.4905 8.64314 10.6641 8.20641 10.9393 7.91477L11.0159 7.99183C10.6641 8.3098 10.4541 8.84007 10.4541 9.54395Z" fill="url(#paint8_linear)"/>
<path d="M28.3339 16.6641L13.118 8.00431C12.6962 7.76483 12.297 7.65124 11.9415 7.65124C11.5791 7.65124 11.2629 7.76936 11.0161 7.99209L10.9395 7.91498C10.9634 7.8896 10.9883 7.86513 11.014 7.8416C11.0148 7.84075 11.0161 7.8399 11.0169 7.8391C11.2618 7.61807 11.5746 7.49995 11.9338 7.49783H11.9415C12.297 7.49783 12.6962 7.61146 13.118 7.85104L28.4319 16.566L28.4314 16.5664L28.3339 16.6641" fill="url(#paint9_linear)"/>
<defs>
<linearGradient id="paint0_linear" x1="18.7544" y1="9.14496" x2="7.56141" y2="20.356" gradientUnits="userSpaceOnUse">
<stop stop-color="#00A0FF"/>
<stop offset="0.00657" stop-color="#00A1FF"/>
<stop offset="0.2601" stop-color="#00BEFF"/>
<stop offset="0.5122" stop-color="#00D2FF"/>
<stop offset="0.7604" stop-color="#00DFFF"/>
<stop offset="1" stop-color="#00E3FF"/>
</linearGradient>
<linearGradient id="paint1_linear" x1="35.4691" y1="20.9261" x2="10.1033" y2="20.9261" gradientUnits="userSpaceOnUse">
<stop stop-color="#FFE000"/>
<stop offset="0.4087" stop-color="#FFBD00"/>
<stop offset="0.7754" stop-color="#FFA500"/>
<stop offset="1" stop-color="#FF9C00"/>
</linearGradient>
<linearGradient id="paint2_linear" x1="26.0358" y1="25.125" x2="7.06837" y2="43.9842" gradientUnits="userSpaceOnUse">
<stop stop-color="#FF3A44"/>
<stop offset="1" stop-color="#C31162"/>
</linearGradient>
<linearGradient id="paint3_linear" x1="7.66816" y1="6.06336" x2="16.1215" y2="14.4814" gradientUnits="userSpaceOnUse">
<stop stop-color="#32A071"/>
<stop offset="0.0685" stop-color="#2DA771"/>
<stop offset="0.4762" stop-color="#15CF74"/>
<stop offset="0.8009" stop-color="#06E775"/>
<stop offset="1" stop-color="#00F076"/>
</linearGradient>
<linearGradient id="paint4_linear" x1="26.0261" y1="28.1335" x2="10.836" y2="43.3481" gradientUnits="userSpaceOnUse">
<stop stop-color="#CC2E36"/>
<stop offset="1" stop-color="#9C0E4E"/>
</linearGradient>
<linearGradient id="paint5_linear" x1="12.1843" y1="9.14472" x2="2.32346" y2="19.0216" gradientUnits="userSpaceOnUse">
<stop stop-color="#008DE0"/>
<stop offset="0.00657" stop-color="#008DE0"/>
<stop offset="0.2601" stop-color="#00A7E0"/>
<stop offset="0.5122" stop-color="#00B8E0"/>
<stop offset="0.7604" stop-color="#00C4E0"/>
<stop offset="1" stop-color="#00C7E0"/>
</linearGradient>
<linearGradient id="paint6_linear" x1="35.4692" y1="21.0017" x2="10.1033" y2="21.0017" gradientUnits="userSpaceOnUse">
<stop stop-color="#E0C500"/>
<stop offset="0.4087" stop-color="#E0A600"/>
<stop offset="0.7754" stop-color="#E09100"/>
<stop offset="1" stop-color="#E08900"/>
</linearGradient>
<linearGradient id="paint7_linear" x1="35.4687" y1="21.001" x2="10.1029" y2="21.001" gradientUnits="userSpaceOnUse">
<stop stop-color="#FFE840"/>
<stop offset="0.4087" stop-color="#FFCE40"/>
<stop offset="0.7754" stop-color="#FFBC40"/>
<stop offset="1" stop-color="#FFB540"/>
</linearGradient>
<linearGradient id="paint8_linear" x1="12.1736" y1="9.16299" x2="2.67587" y2="18.264" gradientUnits="userSpaceOnUse">
<stop stop-color="#40B8FF"/>
<stop offset="0.00657" stop-color="#40B9FF"/>
<stop offset="0.2601" stop-color="#40CEFF"/>
<stop offset="0.5122" stop-color="#40DDFF"/>
<stop offset="0.7604" stop-color="#40E7FF"/>
<stop offset="1" stop-color="#40EAFF"/>
</linearGradient>
<linearGradient id="paint9_linear" x1="7.64966" y1="8.8146" x2="14.4327" y2="15.6087" gradientUnits="userSpaceOnUse">
<stop stop-color="#65B895"/>
<stop offset="0.0685" stop-color="#62BD95"/>
<stop offset="0.4762" stop-color="#50DB97"/>
<stop offset="0.8009" stop-color="#44ED98"/>
<stop offset="1" stop-color="#40F498"/>
</linearGradient>
</defs>
</svg>
