<svg width="167" height="63" viewBox="0 0 167 63" fill="none" xmlns="http://www.w3.org/2000/svg">
<path opacity="0.7" d="M166.904 60.4731C167.196 61.2484 166.804 62.1135 166.028 62.4052C165.253 62.6969 164.388 62.3049 164.096 61.5295L166.904 60.4731ZM0.910736 15.3798C0.148911 15.0543 -0.204849 14.1729 0.12059 13.4111L5.42397 0.996413C5.7494 0.234587 6.63081 -0.119173 7.39264 0.206269C8.15446 0.531711 8.50822 1.41312 8.18279 2.17494L3.46867 13.2102L14.5039 17.9243C15.2658 18.2498 15.6195 19.1312 15.2941 19.893C14.9686 20.6548 14.0872 21.0086 13.3254 20.6831L0.910736 15.3798ZM164.096 61.5295C145.501 12.1042 75.0969 -13.9221 2.05872 15.3924L0.941284 12.6083C74.9031 -17.0769 147.499 8.89789 166.904 60.4731L164.096 61.5295Z" fill="url(#paint0_linear)"/>
<defs>
<linearGradient id="paint0_linear" x1="125.383" y1="47.7946" x2="-38.4862" y2="106.707" gradientUnits="userSpaceOnUse">
<stop stop-color="#DB5B1B" stop-opacity="0"/>
<stop offset="1" stop-color="#DB5B1B"/>
</linearGradient>
</defs>
</svg>

