<svg width="129" height="158" viewBox="0 0 129 158" fill="none" xmlns="http://www.w3.org/2000/svg">
<path d="M10.4841 130.65C9.45348 130.252 8.29589 130.766 7.89856 131.796C7.50124 132.827 8.01463 133.985 9.04526 134.382L10.4841 130.65ZM58.7967 113.667L60.4507 114.792L58.7967 113.667ZM95.9713 61.4803L97.1372 63.1054L97.1372 63.1054L95.9713 61.4803ZM112.297 18.7835C111.428 18.1013 110.171 18.2525 109.489 19.1212L98.3716 33.2778C97.6894 34.1465 97.8406 35.4038 98.7094 36.086C99.5781 36.7682 100.835 36.617 101.518 35.7483L111.399 23.1647L123.983 33.0466C124.852 33.7288 126.109 33.5776 126.791 32.7089C127.473 31.8401 127.322 30.5829 126.454 29.9007L112.297 18.7835ZM9.04526 134.382C15.885 137.019 25.7459 136.477 35.2378 133.221C44.7838 129.946 54.3213 123.807 60.4507 114.792L57.1428 112.543C51.6092 120.682 42.873 126.373 33.9399 129.437C24.9527 132.52 16.1291 132.826 10.4841 130.65L9.04526 134.382ZM60.4507 114.792C68.0113 103.672 72.0119 87.541 73.1487 73.6921C73.7189 66.7447 73.5787 60.2576 72.7602 55.1417C72.3516 52.5873 71.7634 50.3074 70.9709 48.4607C70.1963 46.6557 69.1258 45.0285 67.6068 44.1042L65.5276 47.5213C66.0128 47.8166 66.6583 48.5544 67.2951 50.0382C67.914 51.4804 68.4328 53.4131 68.8105 55.7736C69.5646 60.4874 69.7142 66.6385 69.1621 73.3648C68.0541 86.8631 64.1609 102.221 57.1428 112.543L60.4507 114.792ZM67.6068 44.1042C62.9643 41.2794 58.1524 41.9187 55.656 45.4705C53.2632 48.875 53.7291 53.9801 57.3085 58.6457L60.4821 56.2109C57.5746 52.4212 57.8679 49.2796 58.9286 47.7706C59.8856 46.4089 62.1531 45.4681 65.5276 47.5213L67.6068 44.1042ZM57.3085 58.6457C60.9374 63.3757 67.5255 66.8771 74.7544 68.0389C82.0321 69.2085 90.2378 68.0549 97.1372 63.1054L94.8055 59.8552C88.9206 64.077 81.8317 65.125 75.3891 64.0896C68.8978 63.0463 63.34 59.936 60.4821 56.2109L57.3085 58.6457ZM97.1372 63.1054C104.907 57.5311 109.602 51.8474 111.956 44.8608C114.285 37.9507 114.237 30.0087 113.047 20.1177L109.076 20.5953C110.248 30.3397 110.2 37.5468 108.166 43.5834C106.157 49.5433 102.126 54.6037 94.8055 59.8552L97.1372 63.1054Z" fill="url(#paint0_linear)"/>
<defs>
<linearGradient id="paint0_linear" x1="16.2069" y1="141.9" x2="156.361" y2="66.1271" gradientUnits="userSpaceOnUse">
<stop stop-color="#EC9422"/>
<stop offset="1" stop-color="#EC9422" stop-opacity="0"/>
</linearGradient>
</defs>
</svg>
