<svg viewBox="0 0 297 124" fill="none" xmlns="http://www.w3.org/2000/svg">
<path d="M2.16426 118.951C1.34081 118.86 0.599737 119.454 0.509021 120.277C0.418304 121.101 1.0123 121.842 1.83574 121.932L2.16426 118.951ZM294.476 1.73186C294.328 0.916778 293.547 0.376072 292.732 0.524161L279.449 2.9374C278.634 3.08549 278.094 3.8663 278.242 4.68138C278.39 5.49646 279.171 6.03717 279.986 5.88908L291.792 3.74398L293.937 15.5507C294.085 16.3658 294.866 16.9065 295.681 16.7584C296.496 16.6103 297.037 15.8295 296.889 15.0144L294.476 1.73186ZM1.83574 121.932C34.3814 125.518 87.9684 123.862 143.152 107.281C198.347 90.6969 255.251 59.1463 294.233 2.85397L291.767 1.14603C253.282 56.7195 197.047 87.9548 142.289 104.408C87.5202 120.864 34.3408 122.495 2.16426 118.951L1.83574 121.932Z" fill="url(#paint0_linear)"/>
      <defs>
      <linearGradient id="paint0_linear" x1="-6.33594" y1="54.9412" x2="305.441" y2="166.864" gradientUnits="userSpaceOnUse">
      <stop stop-color="#EC9422" stop-opacity="0"/>
      <stop offset="1" stop-color="#EC9422"/>
      </linearGradient>
      </defs>
</svg>


