<svg aria-hidden="true"  version="1.1" xmlns="http://www.w3.org/2000/svg" xmlns:xlink="http://www.w3.org/1999/xlink" viewBox="0 0 16 19">

    <g fill="none">
      <path d="M14.75 7.75C14.75 13 8 17.5 8 17.5C8 17.5 1.25 13 1.25 7.75C1.25 5.95979 1.96116 4.2429 3.22703 2.97703C4.4929 1.71116 6.20979 1 8 1C9.79021 1 11.5071 1.71116 12.773 2.97703C14.0388 4.2429 14.75 5.95979 14.75 7.75Z" stroke="#90908E" stroke-width="2" stroke-linecap="round" stroke-linejoin="round"/>
      <path d="M8 10C9.24264 10 10.25 8.99264 10.25 7.75C10.25 6.50736 9.24264 5.5 8 5.5C6.75736 5.5 5.75 6.50736 5.75 7.75C5.75 8.99264 6.75736 10 8 10Z" stroke="#90908E" stroke-width="2" stroke-linecap="round" stroke-linejoin="round"/>
    </g>

</svg>