<svg aria-hidden="true" viewBox="0 0 383.989 383.989" style="position: absolute; width: 0; height: 0; overflow: hidden;" version="1.1" xmlns="http://www.w3.org/2000/svg" xmlns:xlink="http://www.w3.org/1999/xlink">
    <g>
        <path d="M380.869 365.789 18.203 3.123c-4.16-4.16-10.923-4.16-15.083 0s-4.16 10.923 0 15.083l362.667 362.667c2.091 2.069 4.821 3.115 7.552 3.115s5.461-1.045 7.531-3.115c4.159-4.161 4.159-10.924-.001-15.084z" fill="#343432" />
        <path d="M380.869 3.123c-4.16-4.16-10.923-4.16-15.083 0L3.12 365.789c-4.16 4.16-4.16 10.923 0 15.083 2.091 2.069 4.821 3.115 7.552 3.115s5.461-1.045 7.531-3.115L380.869 18.205c4.16-4.16 4.16-10.922 0-15.082z" fill="#343432" />
    </g>
</svg>