<svg aria-hidden="true" style="position: absolute; width: 0; height: 0; overflow: hidden;" version="1.1" xmlns="http://www.w3.org/2000/svg" xmlns:xlink="http://www.w3.org/1999/xlink">
  <defs>
    <symbol id="icon-address" viewBox="0 0 16 19" fill="none">
      <path d="M14.75 7.75C14.75 13 8 17.5 8 17.5C8 17.5 1.25 13 1.25 7.75C1.25 5.95979 1.96116 4.2429 3.22703 2.97703C4.4929 1.71116 6.20979 1 8 1C9.79021 1 11.5071 1.71116 12.773 2.97703C14.0388 4.2429 14.75 5.95979 14.75 7.75Z" stroke="#90908E" stroke-width="2" stroke-linecap="round" stroke-linejoin="round"/>
      <path d="M8 10C9.24264 10 10.25 8.99264 10.25 7.75C10.25 6.50736 9.24264 5.5 8 5.5C6.75736 5.5 5.75 6.50736 5.75 7.75C5.75 8.99264 6.75736 10 8 10Z" stroke="#90908E" stroke-width="2" stroke-linecap="round" stroke-linejoin="round"/>
    </symbol>
    <symbol id="section-top-before" viewBox="0 0 628 926" fill="none">
        <g opacity="0.8" filter="url(#filter0_f)">
        <circle cx="493.5" cy="491.5" r="134.5" fill="#F2B769"/>
        </g>
        <g opacity="0.8" filter="url(#filter1_f)">
        <circle cx="393" cy="346" r="93" fill="#AE7CF3"/>
        </g>
        <defs>
        <filter id="filter0_f" x="59" y="57" width="869" height="869" filterUnits="userSpaceOnUse" color-interpolation-filters="sRGB">
        <feFlood flood-opacity="0" result="BackgroundImageFix"/>
        <feBlend mode="normal" in="SourceGraphic" in2="BackgroundImageFix" result="shape"/>
        <feGaussianBlur stdDeviation="150" result="effect1_foregroundBlur"/>
        </filter>
        <filter id="filter1_f" x="0" y="-47" width="786" height="786" filterUnits="userSpaceOnUse" color-interpolation-filters="sRGB">
        <feFlood flood-opacity="0" result="BackgroundImageFix"/>
        <feBlend mode="normal" in="SourceGraphic" in2="BackgroundImageFix" result="shape"/>
        <feGaussianBlur stdDeviation="150" result="effect1_foregroundBlur"/>
        </filter>
        </defs>
    </symbol>
    <symbol id="section-top-after" viewBox="0 0 609 967" fill="none">
      <g opacity="0.8" filter="url(#filter0_f)">
      <circle cx="176.961" cy="534.137" r="132.04" fill="#F7D2A1"/>
      </g>
      <g opacity="0.8" filter="url(#filter1_f)">
      <circle cx="78.2988" cy="391.299" r="91.2988" fill="#DB5B1B"/>
      </g>
      <defs>
      <filter id="filter0_f" x="-255.079" y="102.098" width="864.079" height="864.079" filterUnits="userSpaceOnUse" color-interpolation-filters="sRGB">
      <feFlood flood-opacity="0" result="BackgroundImageFix"/>
      <feBlend mode="normal" in="SourceGraphic" in2="BackgroundImageFix" result="shape"/>
      <feGaussianBlur stdDeviation="150" result="effect1_foregroundBlur"/>
      </filter>
      <filter id="filter1_f" x="-313" y="0" width="782.598" height="782.598" filterUnits="userSpaceOnUse" color-interpolation-filters="sRGB">
      <feFlood flood-opacity="0" result="BackgroundImageFix"/>
      <feBlend mode="normal" in="SourceGraphic" in2="BackgroundImageFix" result="shape"/>
      <feGaussianBlur stdDeviation="150" result="effect1_foregroundBlur"/>
      </filter>
      </defs>
    </symbol>
    <symbol id="icon-twitter" viewBox="0 0 24 20">
      <path d="M21.5156 5.125C22.4531 4.42188 23.2969 3.57812 23.9531 2.59375C23.1094 2.96875 22.125 3.25 21.1406 3.34375C22.1719 2.73438 22.9219 1.79688 23.2969 0.625C22.3594 1.1875 21.2812 1.60938 20.2031 1.84375C19.2656 0.859375 18 0.296875 16.5938 0.296875C13.875 0.296875 11.6719 2.5 11.6719 5.21875C11.6719 5.59375 11.7188 5.96875 11.8125 6.34375C7.73438 6.10938 4.07812 4.14062 1.64062 1.1875C1.21875 1.89062 0.984375 2.73438 0.984375 3.67188C0.984375 5.35938 1.82812 6.85938 3.1875 7.75C2.39062 7.70312 1.59375 7.51562 0.9375 7.14062V7.1875C0.9375 9.57812 2.625 11.5469 4.875 12.0156C4.5 12.1094 4.03125 12.2031 3.60938 12.2031C3.28125 12.2031 3 12.1562 2.67188 12.1094C3.28125 14.0781 5.10938 15.4844 7.26562 15.5312C5.57812 16.8438 3.46875 17.6406 1.17188 17.6406C0.75 17.6406 0.375 17.5938 0 17.5469C2.15625 18.9531 4.73438 19.75 7.54688 19.75C16.5938 19.75 21.5156 12.2969 21.5156 5.78125C21.5156 5.54688 21.5156 5.35938 21.5156 5.125Z" />
    </symbol>
    <symbol id="icon-facebook" viewBox="0 0 29 29">
      <path d="M25.375 6.94792V22.0521C25.375 23.8827 23.8827 25.375 22.0521 25.375H18.7292V16.9167H20.9163C21.2244 16.9167 21.4842 16.6871 21.5204 16.385L21.744 14.5725C21.7681 14.4033 21.7138 14.2281 21.599 14.1013C21.4842 13.9683 21.321 13.8958 21.1458 13.8958H18.7292V11.7812C18.7292 11.1167 19.2729 10.5729 19.9375 10.5729H21.1458C21.4781 10.5729 21.75 10.301 21.75 9.96875V7.92667C21.75 7.61854 21.5083 7.35875 21.2002 7.32854C21.164 7.3225 20.3121 7.25 19.2306 7.25C16.5723 7.25 15.1042 8.83292 15.1042 11.7027V13.8958H12.6875C12.3552 13.8958 12.0833 14.1677 12.0833 14.5V16.3125C12.0833 16.6448 12.3552 16.9167 12.6875 16.9167H15.1042V25.375H6.94792C5.11729 25.375 3.625 23.8827 3.625 22.0521V6.94792C3.625 5.11729 5.11729 3.625 6.94792 3.625H22.0521C23.8827 3.625 25.375 5.11729 25.375 6.94792Z" />
    </symbol>
    <symbol id="icon-linkedin" viewBox="0 0 21 22">
      <path d="M19.5 0.5H1.45312C0.65625 0.5 0 1.20312 0 2.04688V20C0 20.8438 0.65625 21.5 1.45312 21.5H19.5C20.2969 21.5 21 20.8438 21 20V2.04688C21 1.20312 20.2969 0.5 19.5 0.5ZM6.32812 18.5H3.23438V8.51562H6.32812V18.5ZM4.78125 7.10938C3.75 7.10938 2.95312 6.3125 2.95312 5.32812C2.95312 4.34375 3.75 3.5 4.78125 3.5C5.76562 3.5 6.5625 4.34375 6.5625 5.32812C6.5625 6.3125 5.76562 7.10938 4.78125 7.10938ZM18 18.5H14.8594V13.625C14.8594 12.5 14.8594 11 13.2656 11C11.625 11 11.3906 12.2656 11.3906 13.5781V18.5H8.29688V8.51562H11.25V9.875H11.2969C11.7188 9.07812 12.75 8.23438 14.25 8.23438C17.3906 8.23438 18 10.3438 18 13.0156V18.5Z"/>
    </symbol>
    <symbol id="icon-youtube" viewBox="0 0 27 18" >
      <path d="M25.7344 2.85938C25.4531 1.73438 24.5625 0.84375 23.4844 0.5625C21.4688 0 13.5 0 13.5 0C13.5 0 5.48438 0 3.46875 0.5625C2.39062 0.84375 1.5 1.73438 1.21875 2.85938C0.65625 4.82812 0.65625 9.04688 0.65625 9.04688C0.65625 9.04688 0.65625 13.2188 1.21875 15.2344C1.5 16.3594 2.39062 17.2031 3.46875 17.4844C5.48438 18 13.5 18 13.5 18C13.5 18 21.4688 18 23.4844 17.4844C24.5625 17.2031 25.4531 16.3594 25.7344 15.2344C26.2969 13.2188 26.2969 9.04688 26.2969 9.04688C26.2969 9.04688 26.2969 4.82812 25.7344 2.85938ZM10.875 12.8438V5.25L17.5312 9.04688L10.875 12.8438Z"/>
    </symbol>
    <symbol id="icon-play" viewBox="0 0 34 34">
      <path d="M17.0002 31.1663C24.8242 31.1663 31.1668 24.8237 31.1668 16.9997C31.1668 9.17564 24.8242 2.83301 17.0002 2.83301C9.17613 2.83301 2.8335 9.17564 2.8335 16.9997C2.8335 24.8237 9.17613 31.1663 17.0002 31.1663Z" stroke="white" stroke-width="2" stroke-linecap="round" stroke-linejoin="round"/>
      <path d="M14.1665 11.333L22.6665 16.9997L14.1665 22.6663V11.333Z" stroke="white" stroke-width="2" stroke-linecap="round" stroke-linejoin="round"/>
    </symbol>
    <symbol id="icon-star-outlined" viewBox="0 0 20 20">
      <path d="M18.8 8.022h-6.413l-2.387-6.722-2.389 6.722h-6.412l5.232 3.947-1.871 6.929 5.44-4.154 5.438 4.154-1.869-6.929 5.231-3.947zM10 12.783l-3.014 2.5 1.243-3.562-2.851-2.3 3.522 0.101 1.1-4.040 1.099 4.040 3.521-0.101-2.851 2.3 1.243 3.562-3.012-2.5z"></path>
    </symbol>
    <symbol id="icon-star" viewBox="0 0 20 20">
      <path d="M10 1.3l2.388 6.722h6.412l-5.232 3.948 1.871 6.928-5.439-4.154-5.438 4.154 1.87-6.928-5.233-3.948h6.412l2.389-6.722z"></path>
    </symbol>
    <symbol id="icon-arrow" viewBox="0 0 7 12" fill="none">
      <path d="M0 12V10.0923L5.38875 6L0 1.90769V0L7 5.26154V6.73846L0 12Z" fill="#343432"/>
    </symbol>
    <symbol id="icon-menu" viewBox="0 0 27 23">
      <rect width="26.1367" height="2.09093" fill="#343432"/>
      <rect y="10.4548" width="26.1367" height="2.09093" fill="#343432"/>
      <rect y="20.9089" width="26.1367" height="2.09093" fill="#343432"/>
    </symbol>
    <symbol id="icon-close" viewBox="0 0 383.989 383.989" fill="#343432">
    <path d="M380.869 365.789 18.203 3.123c-4.16-4.16-10.923-4.16-15.083 0s-4.16 10.923 0 15.083l362.667 362.667c2.091 2.069 4.821 3.115 7.552 3.115s5.461-1.045 7.531-3.115c4.159-4.161 4.159-10.924-.001-15.084z"/><path d="M380.869 3.123c-4.16-4.16-10.923-4.16-15.083 0L3.12 365.789c-4.16 4.16-4.16 10.923 0 15.083 2.091 2.069 4.821 3.115 7.552 3.115s5.461-1.045 7.531-3.115L380.869 18.205c4.16-4.16 4.16-10.922 0-15.082z"/>
    </symbol>
  </defs>
</svg>

