<svg width="141" height="94" viewBox="0 0 141 94" fill="none" xmlns="http://www.w3.org/2000/svg">
<path d="M134.31 55.1726C134.925 54.2548 136.167 54.009 137.085 54.6235C138.003 55.2381 138.248 56.4803 137.634 57.3981L134.31 55.1726ZM92.1729 67.2745L91.4667 69.1457L92.1729 67.2745ZM40.2279 48.9568L40.209 50.9567L40.2279 48.9568ZM7.36772 26.9233C7.68597 25.8655 8.80142 25.2661 9.85915 25.5843L27.0958 30.7705C28.1536 31.0888 28.753 32.2042 28.4348 33.262C28.1165 34.3197 27.0011 34.9192 25.9434 34.6009L10.6219 29.991L6.0119 45.3124C5.69365 46.3702 4.57819 46.9696 3.52047 46.6514C2.46274 46.3331 1.86327 45.2177 2.18153 44.16L7.36772 26.9233ZM137.634 57.3981C134.078 62.7089 126.807 67.2319 118.486 69.6459C110.11 72.0758 100.304 72.4808 91.4667 69.1457L92.8791 65.4033C100.725 68.3643 109.618 68.0536 117.372 65.8043C125.18 63.539 131.467 59.4194 134.31 55.1726L137.634 57.3981ZM91.4667 69.1457C80.5883 65.0403 69.7621 55.635 62.0994 46.4394C58.2533 41.824 55.1303 37.174 53.1638 33.1461C52.1822 31.1354 51.4584 29.2186 51.0963 27.4979C50.7435 25.8215 50.6802 24.0798 51.3254 22.6009L54.9917 24.2004C54.8304 24.57 54.7298 25.3398 55.0106 26.6741C55.282 27.964 55.8628 29.5569 56.7583 31.3912C58.5462 35.0531 61.4683 39.4337 65.1723 43.8788C72.6097 52.804 82.9035 61.6386 92.8791 65.4033L91.4667 69.1457ZM51.3254 22.6009C53.235 18.2236 57.0687 16.1739 60.7571 17.5009C64.2761 18.7668 66.5084 22.7306 66.2949 27.8586L62.2984 27.6923C62.4659 23.6672 60.742 21.7464 59.4031 21.2647C58.2336 20.844 56.3078 21.1835 54.9917 24.2004L51.3254 22.6009ZM66.2949 27.8586C66.0781 33.0679 63.1331 38.8516 58.5866 43.2794C54.0046 47.7417 47.5955 51.0268 40.209 50.9567L40.2469 46.9569C46.385 47.0151 51.8198 44.286 55.7958 40.4138C59.8072 36.5072 62.1342 31.6361 62.2984 27.6923L66.2949 27.8586ZM40.209 50.9567C31.9499 50.8784 25.7753 49.1937 20.6038 45.3998C15.4974 41.6536 11.5802 35.999 7.52121 28.4463L11.0446 26.5527C15.0337 33.9754 18.6068 38.9738 22.9698 42.1746C27.2677 45.3276 32.5416 46.8838 40.2469 46.9569L40.209 50.9567Z" fill="url(#paint0_linear)"/>
<defs>
<linearGradient id="paint0_linear" x1="136.082" y1="66.0699" x2="0.0591309" y2="82.0836" gradientUnits="userSpaceOnUse">
<stop stop-color="#EC9422" stop-opacity="0"/>
<stop offset="1" stop-color="#EC9422"/>
</linearGradient>
</defs>
</svg>
