<svg width="99" height="104" viewBox="0 0 99 104" fill="none" xmlns="http://www.w3.org/2000/svg">
<path opacity="0.7" d="M84.0929 77.3756C84.6786 77.9614 85.6284 77.9614 86.2142 77.3756L95.7602 67.8298C96.346 67.244 96.346 66.2942 95.7602 65.7084C95.1745 65.1226 94.2247 65.1226 93.6389 65.7084L85.1536 74.1936L76.6684 65.7082C76.0826 65.1224 75.1328 65.1224 74.547 65.7082C73.9613 66.294 73.9612 67.2437 74.547 67.8295L84.0929 77.3756ZM2.35321 34.6462C1.60571 35.0034 1.28926 35.8988 1.64639 36.6463C2.00353 37.3938 2.89901 37.7103 3.6465 37.3531L2.35321 34.6462ZM86.6535 76.3149C86.6539 44.82 48.2781 12.7045 2.35321 34.6462L3.6465 37.3531C47.7213 16.2954 83.6538 47.181 83.6535 76.3149L86.6535 76.3149Z" fill="url(#paint0_linear)"/>
<defs>
<linearGradient id="paint0_linear" x1="86.5" y1="73.5005" x2="17.8778" y2="59.4929" gradientUnits="userSpaceOnUse">
<stop stop-color="#DB5B1B"/>
<stop offset="1" stop-color="#DB5B1B" stop-opacity="0"/>
</linearGradient>
</defs>
</svg>
