<svg width="126" height="42" viewBox="0 0 126 42" fill="none" xmlns="http://www.w3.org/2000/svg">
<path d="M115.641 0.0001365H10.0114C9.62635 0.0001365 9.24593 0.0001365 8.86192 0.00223649C8.54046 0.00433649 8.22157 0.010437 7.89702 0.0155714C7.19197 0.0238683 6.48857 0.0858963 5.79294 0.201116C5.09828 0.318845 4.42539 0.540796 3.79702 0.859464C3.16941 1.18083 2.59595 1.59841 2.09744 2.09705C1.59631 2.5943 1.17858 3.16904 0.860315 3.79919C0.541169 4.42809 0.319871 5.10201 0.204067 5.79767C0.0871612 6.49246 0.0242532 7.19526 0.0159074 7.89977C0.00616348 8.22169 0.00513448 8.54469 0 8.86666V33.1366C0.00513448 33.4626 0.00616348 33.7784 0.0159074 34.1046C0.0242558 34.809 0.0871638 35.5118 0.204067 36.2065C0.319552 36.9026 0.540862 37.5769 0.860315 38.206C1.17844 38.8342 1.59623 39.4066 2.09744 39.9011C2.59406 40.4019 3.16789 40.8198 3.79702 41.1387C4.42539 41.4582 5.09821 41.6815 5.79294 41.801C6.48868 41.9153 7.19201 41.9774 7.89702 41.9867C8.22157 41.9938 8.54046 41.9979 8.86192 41.9979C9.24592 42 9.62637 42 10.0114 42H115.641C116.019 42 116.402 42 116.779 41.9979C117.099 41.9979 117.427 41.9938 117.747 41.9867C118.451 41.9779 119.153 41.9158 119.847 41.801C120.544 41.6806 121.22 41.4574 121.851 41.1387C122.479 40.8196 123.053 40.4017 123.549 39.9011C124.049 39.4046 124.468 38.8326 124.79 38.206C125.107 37.5765 125.326 36.9022 125.44 36.2065C125.557 35.5117 125.622 34.8091 125.635 34.1046C125.639 33.7784 125.639 33.4626 125.639 33.1366C125.647 32.7551 125.647 32.3757 125.647 31.9881V10.013C125.647 9.62852 125.647 9.24708 125.639 8.86666C125.639 8.54469 125.639 8.22169 125.635 7.89972C125.622 7.19516 125.557 6.49251 125.44 5.79763C125.326 5.10237 125.106 4.4285 124.79 3.79915C124.142 2.53608 123.114 1.50796 121.851 0.85937C121.22 0.54148 120.544 0.319588 119.847 0.201022C119.153 0.0852942 118.451 0.0232446 117.747 0.0154244C117.427 0.0103005 117.099 0.00414749 116.779 0.00209999C116.402 0 116.019 0 115.641 0V0.0001365Z" fill="#A6A6A6"/>
<path d="M8.86738 41.0813C8.54746 41.0813 8.23528 41.0772 7.91788 41.0701C7.26035 41.0615 6.60436 41.0043 5.95529 40.8988C5.35006 40.7946 4.76375 40.6007 4.21571 40.3235C3.6727 40.0487 3.17743 39.6883 2.74887 39.2561C2.31411 38.829 1.95215 38.3337 1.67734 37.7898C1.3995 37.2423 1.20721 36.6555 1.10719 36.0497C0.99917 35.3989 0.940727 34.7407 0.932364 34.081C0.925707 33.8595 0.916992 33.1222 0.916992 33.1222V8.86673C0.916992 8.86673 0.926274 8.14075 0.932417 7.92746C0.940424 7.26878 0.998527 6.61166 1.10622 5.9618C1.20643 5.35439 1.39886 4.76587 1.67685 4.2166C1.95066 3.67303 2.31061 3.17734 2.74275 2.74875C3.1744 2.31609 3.67126 1.95383 4.2152 1.67516C4.76198 1.39889 5.34717 1.20636 5.95118 1.10403C6.60238 0.997523 7.26065 0.939941 7.92046 0.931766L8.86789 0.918945H116.775L117.733 0.93228C118.387 0.940049 119.039 0.997118 119.685 1.103C120.295 1.20662 120.886 1.40049 121.439 1.67824C122.529 2.23983 123.415 3.12831 123.975 4.21916C124.248 4.76464 124.438 5.34836 124.537 5.95052C124.646 6.60572 124.707 7.268 124.719 7.93208C124.722 8.22944 124.722 8.54885 124.722 8.86673C124.731 9.26047 124.731 9.63525 124.731 10.0131V31.9881C124.731 32.3696 124.731 32.7418 124.722 33.1171C124.722 33.4585 124.722 33.7713 124.718 34.0933C124.706 34.7455 124.646 35.396 124.539 36.0394C124.441 36.6496 124.25 37.241 123.972 37.7929C123.695 38.331 123.335 38.822 122.905 39.2479C122.476 39.6824 121.98 40.0449 121.436 40.3215C120.884 40.6008 120.294 40.7954 119.685 40.8988C119.036 41.0048 118.38 41.0621 117.722 41.0701C117.414 41.0772 117.092 41.0813 116.78 41.0813L115.641 41.0834L8.86738 41.0813Z" fill="black"/>
<path d="M26.0078 21.3159C26.0191 20.4395 26.2519 19.5802 26.6845 18.818C27.1172 18.0557 27.7356 17.4153 28.4822 16.9563C28.0079 16.2788 27.3821 15.7214 26.6547 15.3281C25.9272 14.9348 25.1181 14.7166 24.2915 14.6907C22.5283 14.5056 20.819 15.7458 19.9205 15.7458C19.0046 15.7458 17.6212 14.7091 16.1316 14.7397C15.168 14.7709 14.2289 15.0511 13.4059 15.553C12.5828 16.055 11.9038 16.7616 11.435 17.604C9.40432 21.1198 10.919 26.2869 12.8643 29.1288C13.8375 30.5204 14.9749 32.0749 16.4633 32.0198C17.9197 31.9594 18.4636 31.0911 20.2216 31.0911C21.9633 31.0911 22.4736 32.0198 23.9922 31.9847C25.555 31.9594 26.5396 30.5869 27.4787 29.1821C28.178 28.1906 28.716 27.0947 29.073 25.935C28.1651 25.551 27.3903 24.9082 26.8452 24.0868C26.3001 23.2654 26.0089 22.3017 26.0078 21.3159V21.3159Z" fill="white"/>
<path d="M23.1403 12.8214C23.9924 11.7985 24.4122 10.4837 24.3106 9.15625C23.0087 9.29298 21.8062 9.91517 20.9426 10.8988C20.5204 11.3794 20.197 11.9384 19.9909 12.544C19.7849 13.1497 19.7002 13.7899 19.7417 14.4283C20.3929 14.435 21.037 14.2939 21.6257 14.0155C22.2144 13.7372 22.7323 13.3289 23.1403 12.8214Z" fill="white"/>
<path d="M44.4181 28.496H39.4481L38.2545 32.0203H36.1494L40.857 18.9814H43.0441L47.7517 32.0203H45.6107L44.4181 28.496ZM39.9628 26.8698H43.9024L41.9603 21.1502H41.906L39.9628 26.8698Z" fill="white"/>
<path d="M57.9186 27.268C57.9186 30.2222 56.3375 32.1201 53.9514 32.1201C53.3469 32.1518 52.7458 32.0125 52.2168 31.7184C51.6879 31.4242 51.2524 30.9871 50.9603 30.4569H50.9152V35.1655H48.9639V22.5143H50.8527V24.0955H50.8886C51.1941 23.5679 51.6369 23.133 52.1699 22.837C52.7029 22.5411 53.3062 22.3952 53.9155 22.4148C56.3282 22.4148 57.9186 24.3221 57.9186 27.268ZM55.9129 27.268C55.9129 25.3434 54.9183 24.078 53.4007 24.078C51.9098 24.078 50.907 25.37 50.907 27.268C50.907 29.1834 51.9098 30.4662 53.4007 30.4662C54.9183 30.4662 55.9129 29.2101 55.9129 27.268Z" fill="white"/>
<path d="M68.3815 27.268C68.3815 30.2221 66.8003 32.1201 64.4143 32.1201C63.8098 32.1517 63.2087 32.0125 62.6797 31.7184C62.1508 31.4242 61.7153 30.9871 61.4232 30.4569H61.3781V35.1655H59.4268V22.5143H61.3155V24.0954H61.3514C61.6569 23.5679 62.0997 23.133 62.6327 22.837C63.1657 22.5411 63.769 22.3952 64.3784 22.4148C66.7911 22.4148 68.3815 24.3221 68.3815 27.268ZM66.3758 27.268C66.3758 25.3434 65.3812 24.078 63.8636 24.078C62.3727 24.078 61.3699 25.37 61.3699 27.268C61.3699 29.1834 62.3727 30.4662 63.8636 30.4662C65.3812 30.4662 66.3758 29.2101 66.3758 27.268H66.3758Z" fill="white"/>
<path d="M75.2963 28.388C75.4409 29.681 76.697 30.53 78.4135 30.53C80.0582 30.53 81.2415 29.6809 81.2415 28.5151C81.2415 27.503 80.5278 26.897 78.838 26.4817L77.1482 26.0746C74.7539 25.4963 73.6424 24.3766 73.6424 22.5596C73.6424 20.3099 75.6029 18.7646 78.3868 18.7646C81.142 18.7646 83.0308 20.3099 83.0944 22.5596H81.1246C81.0067 21.2584 79.931 20.4729 78.3591 20.4729C76.7872 20.4729 75.7116 21.2676 75.7116 22.4243C75.7116 23.3461 76.3986 23.8885 78.0792 24.3038L79.5158 24.6565C82.191 25.2892 83.3025 26.3638 83.3025 28.271C83.3025 30.7104 81.3594 32.2382 78.2689 32.2382C75.3773 32.2382 73.425 30.7463 73.2988 28.3879L75.2963 28.388Z" fill="white"/>
<path d="M87.5146 20.2646V22.5143H89.3224V24.0596H87.5146V29.3004C87.5146 30.1145 87.8766 30.4939 88.6713 30.4939C88.8859 30.4902 89.1001 30.4751 89.3132 30.4488V31.9848C88.9559 32.0516 88.5927 32.0818 88.2293 32.075C86.3047 32.075 85.5541 31.3521 85.5541 29.5085V24.0596H84.1719V22.5143H85.5541V20.2646H87.5146Z" fill="white"/>
<path d="M90.3682 27.268C90.3682 24.277 92.1298 22.3975 94.8768 22.3975C97.633 22.3975 99.3864 24.277 99.3864 27.268C99.3864 30.2673 97.6423 32.1386 94.8768 32.1386C92.1123 32.1386 90.3682 30.2673 90.3682 27.268ZM97.3982 27.268C97.3982 25.2162 96.4579 24.0053 94.8768 24.0053C93.2956 24.0053 92.3564 25.2255 92.3564 27.268C92.3564 29.328 93.2956 30.5298 94.8768 30.5298C96.4579 30.5298 97.3982 29.328 97.3982 27.268H97.3982Z" fill="white"/>
<path d="M100.996 22.5142H102.857V24.1323H102.902C103.028 23.6269 103.324 23.1803 103.741 22.8675C104.157 22.5548 104.669 22.3949 105.189 22.4147C105.414 22.414 105.638 22.4384 105.857 22.4875V24.3127C105.574 24.226 105.277 24.1862 104.981 24.1948C104.697 24.1833 104.415 24.2333 104.152 24.3413C103.89 24.4494 103.654 24.6129 103.461 24.8207C103.268 25.0284 103.122 25.2756 103.033 25.5451C102.945 25.8146 102.915 26.1001 102.947 26.382V32.0206H100.996L100.996 22.5142Z" fill="white"/>
<path d="M114.854 29.2286C114.591 30.9543 112.911 32.1386 110.76 32.1386C107.995 32.1386 106.278 30.2858 106.278 27.3132C106.278 24.3313 108.004 22.3975 110.678 22.3975C113.308 22.3975 114.962 24.2042 114.962 27.0866V27.7551H108.248V27.873C108.217 28.2229 108.261 28.5753 108.377 28.907C108.492 29.2386 108.677 29.5418 108.919 29.7965C109.161 30.0512 109.454 30.2515 109.779 30.3841C110.105 30.5167 110.454 30.5786 110.805 30.5657C111.267 30.6089 111.729 30.5021 112.125 30.2612C112.52 30.0203 112.828 29.6581 113.001 29.2286L114.854 29.2286ZM108.257 26.3913H113.01C113.028 26.0768 112.98 25.762 112.87 25.4667C112.76 25.1714 112.59 24.9021 112.371 24.6755C112.152 24.449 111.889 24.2701 111.598 24.1502C111.306 24.0303 110.993 23.9718 110.678 23.9786C110.36 23.9767 110.046 24.0378 109.751 24.1582C109.457 24.2787 109.19 24.4562 108.965 24.6806C108.74 24.9049 108.562 25.1715 108.44 25.4652C108.319 25.7588 108.256 26.0736 108.257 26.3914V26.3913Z" fill="white"/>
<path d="M39.7171 9.16727C40.1262 9.13791 40.5367 9.19971 40.919 9.34822C41.3014 9.49672 41.646 9.72822 41.928 10.026C42.21 10.3238 42.4224 10.6805 42.5499 11.0703C42.6773 11.4602 42.7167 11.8734 42.6651 12.2803C42.6651 14.2819 41.5833 15.4324 39.7171 15.4324H37.4541V9.16727H39.7171ZM38.4272 14.5464H39.6084C39.9008 14.5639 40.1933 14.5159 40.4648 14.4061C40.7362 14.2963 40.9798 14.1273 41.1777 13.9114C41.3756 13.6956 41.5229 13.4383 41.6089 13.1584C41.6948 12.8784 41.7173 12.5828 41.6746 12.2931C41.7142 12.0045 41.6895 11.7108 41.6022 11.4329C41.5149 11.155 41.3672 10.8998 41.1698 10.6857C40.9723 10.4716 40.7299 10.3038 40.46 10.1943C40.1901 10.0849 39.8993 10.0365 39.6084 10.0526H38.4272V14.5464Z" fill="white"/>
<path d="M43.7645 13.0655C43.7347 12.7548 43.7703 12.4413 43.8688 12.1451C43.9673 11.8489 44.1267 11.5766 44.3366 11.3457C44.5466 11.1147 44.8025 10.9301 45.0879 10.8038C45.3733 10.6775 45.682 10.6123 45.9942 10.6123C46.3063 10.6123 46.615 10.6775 46.9004 10.8038C47.1859 10.9301 47.4418 11.1147 47.6517 11.3457C47.8616 11.5766 48.021 11.8489 48.1195 12.1451C48.218 12.4413 48.2536 12.7548 48.2239 13.0655C48.2542 13.3765 48.219 13.6905 48.1208 13.9871C48.0225 14.2838 47.8632 14.5566 47.6532 14.788C47.4433 15.0194 47.1872 15.2044 46.9014 15.3309C46.6157 15.4575 46.3067 15.5229 45.9942 15.5229C45.6817 15.5229 45.3726 15.4575 45.0869 15.3309C44.8012 15.2044 44.5451 15.0194 44.3351 14.788C44.1251 14.5566 43.9658 14.2838 43.8676 13.9871C43.7693 13.6905 43.7342 13.3765 43.7645 13.0655V13.0655ZM47.2641 13.0655C47.2641 12.0406 46.8037 11.4413 45.9957 11.4413C45.1846 11.4413 44.7283 12.0406 44.7283 13.0655C44.7283 14.0986 45.1846 14.6933 45.9957 14.6933C46.8037 14.6933 47.2641 14.0945 47.2641 13.0655H47.2641Z" fill="white"/>
<path d="M54.1515 15.4322H53.1836L52.2064 11.9499H52.1326L51.1595 15.4322H50.2007L48.8975 10.7041H49.8439L50.6909 14.3119H50.7606L51.7327 10.7041H52.6278L53.5999 14.3119H53.6737L54.5166 10.7041H55.4497L54.1515 15.4322Z" fill="white"/>
<path d="M56.5459 10.7043H57.4441V11.4554H57.5139C57.6322 11.1856 57.8317 10.9595 58.0846 10.8085C58.3375 10.6575 58.6312 10.5892 58.9248 10.6131C59.1549 10.5958 59.3859 10.6304 59.6007 10.7145C59.8155 10.7986 60.0087 10.93 60.1658 11.0989C60.323 11.2678 60.4401 11.4699 60.5086 11.6902C60.5771 11.9105 60.5951 12.1434 60.5613 12.3716V15.4323H59.6282V12.6059C59.6282 11.8461 59.298 11.4682 58.608 11.4682C58.4518 11.461 58.2958 11.4875 58.1509 11.5462C58.0059 11.6048 57.8754 11.6941 57.7681 11.8079C57.6609 11.9217 57.5795 12.0573 57.5296 12.2055C57.4797 12.3537 57.4625 12.5109 57.479 12.6664V15.4324H56.5459L56.5459 10.7043Z" fill="white"/>
<path d="M62.0479 8.8584H62.981V15.4322H62.0479V8.8584Z" fill="white"/>
<path d="M64.2781 13.0656C64.2484 12.7548 64.284 12.4413 64.3825 12.1452C64.4811 11.849 64.6404 11.5767 64.8504 11.3457C65.0604 11.1147 65.3163 10.9301 65.6017 10.8038C65.8872 10.6775 66.1959 10.6123 66.5081 10.6123C66.8202 10.6123 67.1289 10.6775 67.4144 10.8038C67.6998 10.9301 67.9558 11.1147 68.1657 11.3457C68.3757 11.5767 68.535 11.849 68.6336 12.1452C68.7322 12.4413 68.7677 12.7548 68.738 13.0656C68.7683 13.3766 68.7331 13.6906 68.6348 13.9872C68.5365 14.2839 68.3772 14.5567 68.1672 14.7881C67.9572 15.0195 67.7011 15.2044 67.4154 15.331C67.1296 15.4576 66.8206 15.5229 66.5081 15.5229C66.1956 15.5229 65.8865 15.4576 65.6008 15.331C65.315 15.2044 65.0589 15.0195 64.8489 14.7881C64.6389 14.5567 64.4796 14.2839 64.3813 13.9872C64.283 13.6906 64.2478 13.3766 64.2781 13.0656V13.0656ZM67.7777 13.0656C67.7777 12.0407 67.3173 11.4414 66.5093 11.4414C65.6983 11.4414 65.242 12.0407 65.242 13.0656C65.242 14.0987 65.6983 14.6934 66.5093 14.6934C67.3173 14.6934 67.7777 14.0946 67.7777 13.0656H67.7777Z" fill="white"/>
<path d="M69.7207 14.0945C69.7207 13.2434 70.3544 12.7528 71.4792 12.6831L72.76 12.6092V12.2011C72.76 11.7018 72.4298 11.4198 71.792 11.4198C71.2711 11.4198 70.9102 11.611 70.8066 11.9453H69.9032C69.9986 11.1332 70.7625 10.6123 71.8351 10.6123C73.0204 10.6123 73.689 11.2024 73.689 12.2011V15.4316H72.7907V14.7672H72.7169C72.567 15.0055 72.3566 15.1998 72.1071 15.3302C71.8576 15.4607 71.578 15.5225 71.2967 15.5095C71.0982 15.5302 70.8976 15.509 70.7078 15.4474C70.518 15.3857 70.3433 15.285 70.1948 15.1517C70.0463 15.0184 69.9274 14.8554 69.8457 14.6733C69.7641 14.4912 69.7215 14.2941 69.7207 14.0945V14.0945ZM72.76 13.6905V13.2952L71.6054 13.3691C70.9542 13.4126 70.6589 13.6341 70.6589 14.0509C70.6589 14.4765 71.0281 14.7241 71.5357 14.7241C71.6844 14.7391 71.8346 14.7241 71.9774 14.6799C72.1202 14.6357 72.2527 14.5633 72.3669 14.4668C72.4811 14.3704 72.5748 14.252 72.6423 14.1186C72.7098 13.9852 72.7498 13.8397 72.76 13.6905V13.6905Z" fill="white"/>
<path d="M74.916 13.0661C74.916 11.5721 75.684 10.6257 76.8786 10.6257C77.1741 10.6121 77.4674 10.6828 77.7241 10.8297C77.9809 10.9766 78.1905 11.1935 78.3285 11.4552H78.3982V8.8584H79.3313V15.4322H78.4372V14.6852H78.3634C78.2147 14.945 77.9977 15.1593 77.736 15.3047C77.4743 15.4501 77.1778 15.5211 76.8786 15.5101C75.6758 15.5101 74.916 14.5637 74.916 13.0661ZM75.8799 13.0661C75.8799 14.0689 76.3526 14.6724 77.1432 14.6724C77.9296 14.6724 78.4157 14.0602 78.4157 13.0702C78.4157 12.0848 77.9245 11.4639 77.1432 11.4639C76.3577 11.4639 75.8799 12.0715 75.8799 13.0661H75.8799Z" fill="white"/>
<path d="M83.1902 13.0655C83.1605 12.7548 83.1961 12.4413 83.2946 12.1451C83.3931 11.8489 83.5525 11.5766 83.7624 11.3457C83.9723 11.1147 84.2282 10.9301 84.5137 10.8038C84.7991 10.6775 85.1078 10.6123 85.4199 10.6123C85.7321 10.6123 86.0408 10.6775 86.3262 10.8038C86.6116 10.9301 86.8675 11.1147 87.0775 11.3457C87.2874 11.5766 87.4468 11.8489 87.5453 12.1451C87.6438 12.4413 87.6794 12.7548 87.6496 13.0655C87.6799 13.3765 87.6448 13.6905 87.5465 13.9871C87.4483 14.2838 87.289 14.5566 87.079 14.788C86.869 15.0194 86.6129 15.2044 86.3272 15.3309C86.0415 15.4575 85.7324 15.5229 85.4199 15.5229C85.1074 15.5229 84.7984 15.4575 84.5127 15.3309C84.2269 15.2044 83.9708 15.0194 83.7608 14.788C83.5509 14.5566 83.3916 14.2838 83.2933 13.9871C83.1951 13.6905 83.1599 13.3765 83.1902 13.0655V13.0655ZM86.6899 13.0655C86.6899 12.0406 86.2295 11.4413 85.4215 11.4413C84.6104 11.4413 84.1541 12.0406 84.1541 13.0655C84.1541 14.0986 84.6104 14.6933 85.4215 14.6933C86.2295 14.6933 86.6899 14.0945 86.6899 13.0655Z" fill="white"/>
<path d="M88.9023 10.7043H89.8006V11.4554H89.8703C89.9886 11.1856 90.1881 10.9595 90.441 10.8085C90.6939 10.6575 90.9877 10.5892 91.2813 10.6131C91.5113 10.5958 91.7423 10.6304 91.9571 10.7145C92.172 10.7986 92.3651 10.93 92.5223 11.0989C92.6794 11.2678 92.7966 11.4699 92.8651 11.6902C92.9335 11.9105 92.9515 12.1434 92.9178 12.3716V15.4323H91.9847V12.6059C91.9847 11.8461 91.6545 11.4682 90.9644 11.4682C90.8082 11.461 90.6523 11.4875 90.5073 11.5462C90.3624 11.6048 90.2318 11.6941 90.1246 11.8079C90.0173 11.9217 89.936 12.0573 89.8861 12.2055C89.8362 12.3537 89.8189 12.5109 89.8354 12.6664V15.4324H88.9023V10.7043Z" fill="white"/>
<path d="M98.1906 9.52734V10.726H99.2149V11.512H98.1906V13.9432C98.1906 14.4384 98.3946 14.6553 98.8591 14.6553C98.978 14.6549 99.0968 14.6477 99.2149 14.6338V15.411C99.0474 15.441 98.8776 15.4569 98.7074 15.4587C97.6697 15.4587 97.2564 15.0936 97.2564 14.1821V11.5119H96.5059V10.726H97.2564V9.52734H98.1906Z" fill="white"/>
<path d="M100.489 8.8584H101.414V11.4639H101.488C101.612 11.1916 101.817 10.9642 102.075 10.8126C102.333 10.6611 102.631 10.5927 102.93 10.6169C103.158 10.6045 103.387 10.6427 103.6 10.7288C103.812 10.815 104.003 10.9469 104.158 11.1153C104.314 11.2837 104.43 11.4843 104.499 11.7028C104.568 11.9213 104.588 12.1524 104.558 12.3796V15.4322H103.624V12.6098C103.624 11.8546 103.272 11.4721 102.613 11.4721C102.452 11.4589 102.291 11.481 102.14 11.5367C101.989 11.5924 101.852 11.6804 101.739 11.7946C101.625 11.9088 101.538 12.0463 101.484 12.1977C101.429 12.349 101.408 12.5105 101.422 12.6708V15.4321H100.489L100.489 8.8584Z" fill="white"/>
<path d="M109.999 14.1551C109.872 14.5872 109.598 14.961 109.223 15.211C108.849 15.4611 108.398 15.5715 107.95 15.523C107.639 15.5312 107.329 15.4715 107.043 15.3481C106.757 15.2247 106.501 15.0405 106.293 14.8083C106.086 14.5761 105.931 14.3015 105.84 14.0035C105.749 13.7055 105.724 13.3912 105.766 13.0825C105.725 12.7729 105.75 12.458 105.841 12.1591C105.932 11.8602 106.086 11.5843 106.293 11.35C106.499 11.1158 106.754 10.9287 107.039 10.8015C107.325 10.6742 107.634 10.6097 107.946 10.6124C109.262 10.6124 110.055 11.5112 110.055 12.9959V13.3215H106.717V13.3738C106.702 13.5473 106.724 13.7219 106.781 13.8865C106.838 14.0511 106.928 14.202 107.047 14.3295C107.165 14.457 107.309 14.5584 107.469 14.6271C107.629 14.6957 107.802 14.7302 107.976 14.7283C108.199 14.7551 108.425 14.7149 108.626 14.6128C108.826 14.5107 108.991 14.3514 109.101 14.1551L109.999 14.1551ZM106.717 12.6314H109.105C109.117 12.4727 109.095 12.3133 109.042 12.1634C108.988 12.0136 108.904 11.8766 108.794 11.7612C108.685 11.6459 108.552 11.5547 108.405 11.4937C108.258 11.4326 108.1 11.4029 107.941 11.4065C107.78 11.4045 107.62 11.4348 107.47 11.4957C107.321 11.5565 107.185 11.6467 107.071 11.7608C106.957 11.875 106.866 12.0108 106.806 12.1603C106.745 12.3098 106.715 12.47 106.717 12.6314H106.717Z" fill="white"/>
</svg>
