<svg width="175" height="83" viewBox="0 0 175 83" fill="none" xmlns="http://www.w3.org/2000/svg">
<path opacity="0.7" d="M169.981 41.6023C170.312 40.8427 171.195 40.4949 171.955 40.8254C172.715 41.156 173.062 42.0398 172.732 42.7994L169.981 41.6023ZM118.582 66.1091L118.312 67.5845L118.582 66.1091ZM48.8098 54.8867L49.0637 56.3651L48.8098 54.8867ZM3.33791 34.7207C3.43109 33.8975 4.17393 33.3057 4.99711 33.3989L18.4114 34.9174C19.2346 35.0106 19.8264 35.7534 19.7332 36.5766C19.64 37.3998 18.8972 37.9915 18.074 37.8983L6.15014 36.5486L4.80037 48.4724C4.70719 49.2956 3.96434 49.8874 3.14117 49.7942C2.318 49.701 1.72623 48.9581 1.81941 48.135L3.33791 34.7207ZM172.732 42.7994C169.596 50.0056 161.692 57.2288 151.868 62.1193C142.006 67.0289 129.954 69.719 118.312 67.5845L118.853 64.6337C129.714 66.6249 141.104 64.1267 150.531 59.4337C159.997 54.7215 167.228 47.9278 169.981 41.6023L172.732 42.7994ZM118.312 67.5845C103.891 64.9407 88.2359 55.6724 76.5275 45.8798C70.6601 40.9724 65.7177 35.8788 62.3765 31.3321C60.7076 29.0609 59.4076 26.885 58.6005 24.9044C57.8062 22.9553 57.4164 21.0182 57.8179 19.3173L60.7377 20.0065C60.5447 20.824 60.6833 22.0659 61.3787 23.7723C62.0612 25.4471 63.2122 27.4031 64.794 29.5556C67.9543 33.8563 72.7124 38.7779 78.4522 43.5785C89.9581 53.2018 105.144 62.1204 118.853 64.6337L118.312 67.5845ZM57.8179 19.3173C59.1348 13.7388 63.0859 10.8121 67.3426 11.5244C71.466 12.2144 74.9617 16.1952 75.8267 22.4263L72.8552 22.8389C72.104 17.4278 69.2571 14.8865 66.8475 14.4833C64.571 14.1023 61.7988 15.5115 60.7377 20.0065L57.8179 19.3173ZM75.8267 22.4263C76.7001 28.7179 74.4262 36.4253 69.8167 42.8946C65.1857 49.394 58.0766 54.8174 49.0637 56.3651L48.5559 53.4084C56.646 52.0191 63.1106 47.1365 67.3735 41.1537C71.6579 35.1407 73.598 28.1895 72.8552 22.8389L75.8267 22.4263ZM49.0637 56.3651C38.765 58.1336 30.8264 57.4124 23.6882 53.9344C16.6045 50.4829 10.4852 44.3978 3.65515 35.824L6.00162 33.9547C12.7627 42.4419 18.5401 48.0888 25.0023 51.2375C31.4099 54.3596 38.6665 55.1066 48.5559 53.4084L49.0637 56.3651Z" fill="url(#paint0_linear)"/>
<defs>
<linearGradient id="paint0_linear" x1="173.737" y1="54.5276" x2="5.69092" y2="105.91" gradientUnits="userSpaceOnUse">
<stop stop-color="#EC9422" stop-opacity="0"/>
<stop offset="1" stop-color="#EC9422"/>
</linearGradient>
</defs>
</svg>
