<svg width="99" height="104" viewBox="0 0 99 104" fill="none" xmlns="http://www.w3.org/2000/svg">
<path opacity="0.7" d="M84.0929 77.1744C84.6786 77.7602 85.6284 77.7602 86.2142 77.1744L95.7602 67.6286C96.346 67.0428 96.346 66.0931 95.7602 65.5073C95.1745 64.9215 94.2247 64.9215 93.6389 65.5072L85.1536 73.9924L76.6684 65.5071C76.0826 64.9213 75.1328 64.9213 74.547 65.507C73.9613 66.0928 73.9612 67.0426 74.547 67.6284L84.0929 77.1744ZM2.35321 34.4451C1.60571 34.8022 1.28926 35.6977 1.64639 36.4452C2.00353 37.1927 2.89901 37.5091 3.6465 37.152L2.35321 34.4451ZM86.6535 76.1138C86.6539 44.6188 48.2781 12.5033 2.35321 34.4451L3.6465 37.152C47.7213 16.0942 83.6538 46.9798 83.6535 76.1137L86.6535 76.1138Z" fill="url(#paint0_linear)"/>
<defs>
<linearGradient id="paint0_linear" x1="86.5" y1="73.2993" x2="17.8778" y2="59.2917" gradientUnits="userSpaceOnUse">
<stop stop-color="#EC9422"/>
<stop offset="1" stop-color="#EC9422" stop-opacity="0"/>
</linearGradient>
</defs>
</svg>
