<svg aria-hidden="true" viewBox="0 0 29 29" style="position: absolute; width: 0; height: 0; overflow: hidden;" version="1.1" xmlns="http://www.w3.org/2000/svg" xmlns:xlink="http://www.w3.org/1999/xlink">
    <g fill="#FFF">
        <path d="M25.375 6.94792V22.0521C25.375 23.8827 23.8827 25.375 22.0521 25.375H18.7292V16.9167H20.9163C21.2244 16.9167 21.4842 16.6871 21.5204 16.385L21.744 14.5725C21.7681 14.4033 21.7138 14.2281 21.599 14.1013C21.4842 13.9683 21.321 13.8958 21.1458 13.8958H18.7292V11.7812C18.7292 11.1167 19.2729 10.5729 19.9375 10.5729H21.1458C21.4781 10.5729 21.75 10.301 21.75 9.96875V7.92667C21.75 7.61854 21.5083 7.35875 21.2002 7.32854C21.164 7.3225 20.3121 7.25 19.2306 7.25C16.5723 7.25 15.1042 8.83292 15.1042 11.7027V13.8958H12.6875C12.3552 13.8958 12.0833 14.1677 12.0833 14.5V16.3125C12.0833 16.6448 12.3552 16.9167 12.6875 16.9167H15.1042V25.375H6.94792C5.11729 25.375 3.625 23.8827 3.625 22.0521V6.94792C3.625 5.11729 5.11729 3.625 6.94792 3.625H22.0521C23.8827 3.625 25.375 5.11729 25.375 6.94792Z" />
    </g>
</svg>